<?xml version="1.0" encoding="utf-8"?>
<!-- Generator: Adobe Illustrator 16.0.0, SVG Export Plug-In . SVG Version: 6.00 Build 0)  -->
<!DOCTYPE svg PUBLIC "-//W3C//DTD SVG 1.1//EN" "http://www.w3.org/Graphics/SVG/1.1/DTD/svg11.dtd">
<svg version="1.1" id="Layer_5" xmlns="http://www.w3.org/2000/svg" xmlns:xlink="http://www.w3.org/1999/xlink" x="0px" y="0px"
	 width="841.89px" height="595.28px" viewBox="0 0 841.89 595.28" enable-background="new 0 0 841.89 595.28" xml:space="preserve">
<g>
	<path fill="#1F5128" d="M675.916,409.07c0,6.543-5.403,11.846-12.07,11.846H181.573c-6.666,0-12.069-5.303-12.069-11.846V164.762
		c0-6.542,5.404-11.845,12.069-11.845h482.272c6.667,0,12.07,5.303,12.07,11.845V409.07z"/>
	<g>
		<rect x="174.643" y="244.585" fill="#FFFFFF" width="19.363" height="84.403"/>
		<rect x="206.51" y="307.438" fill="#FFFFFF" width="14.432" height="9.454"/>
		<rect x="206.007" y="258.841" fill="#FFFFFF" width="14.768" height="9.002"/>
		<rect x="208.391" y="270.645" fill="#C58D2B" width="14.768" height="3.909"/>
		<rect x="208.391" y="278.181" fill="#C58D2B" width="14.768" height="3.909"/>
		<rect x="208.391" y="284.545" fill="#C58D2B" width="14.768" height="3.909"/>
		<rect x="208.391" y="291.101" fill="#C58D2B" width="14.768" height="3.909"/>
		<rect x="208.391" y="297.246" fill="#C58D2B" width="14.768" height="3.909"/>
		<polygon fill="#A3A2A1" points="218.252,324.467 218.252,248.592 161.013,248.592 157.747,246.084 155.931,247.79 
			159.682,250.802 159.682,322.39 155.588,324.548 157.524,326.807 161.216,324.432 		"/>
		<rect x="155.028" y="254.687" fill="#90918C" width="63.314" height="64.581"/>
		<rect x="170.007" y="259.772" fill="#4E4E4D" width="15.942" height="4.745"/>
		<rect x="169.504" y="309.436" fill="#4E4E4D" width="15.942" height="4.748"/>
		<rect x="210.62" y="291.214" fill="#6B6B68" width="7.606" height="17.544"/>
		<rect x="155.168" y="255.045" fill="#72736E" width="1.632" height="64.072"/>
		<rect x="210.57" y="263.828" fill="#6B6B68" width="7.605" height="17.543"/>
	</g>
	<g>
		<g>
			<rect x="407.642" y="193.979" fill="#FFFFFF" width="267.221" height="185.402"/>
			<rect x="408.742" y="194.758" fill="#1F5128" width="266.258" height="183.586"/>
			<rect x="416.613" y="199.515" fill="#282828" width="258.387" height="173.986"/>
			<rect x="421.983" y="204.877" fill="#4E4E4D" width="178.886" height="163.435"/>
			<rect x="426.638" y="210.432" fill="#90918C" width="168.805" height="152.693"/>
			<path fill="#4E4E4D" d="M442.268,218.368c2.416,0,4.369,1.935,4.369,4.322c0,2.389-1.953,4.324-4.369,4.324
				c-2.417,0-4.372-1.935-4.372-4.324C437.896,220.302,439.851,218.368,442.268,218.368z"/>
			<g>
				<g>
					<g>
						<rect x="401.523" y="345.526" fill="#FFFFFF" width="17.312" height="9.34"/>
						<rect x="417.39" y="345.526" fill="#C58D2B" width="1.446" height="9.34"/>
					</g>
					<g>
						<rect x="401.523" y="248.417" fill="#FFFFFF" width="17.312" height="9.339"/>
						<rect x="417.39" y="248.417" fill="#C58D2B" width="1.446" height="9.339"/>
					</g>
					<g>
						<rect x="401.61" y="234.926" fill="#FFFFFF" width="17.31" height="9.339"/>
						<rect x="417.48" y="234.926" fill="#C58D2B" width="1.44" height="9.339"/>
					</g>
					<g>
						<rect x="401.523" y="276.09" fill="#FFFFFF" width="17.312" height="9.337"/>
						<rect x="417.39" y="276.09" fill="#C58D2B" width="1.446" height="9.337"/>
					</g>
					<g>
						<rect x="401.523" y="262.252" fill="#FFFFFF" width="17.312" height="9.339"/>
						<rect x="417.39" y="262.252" fill="#C58D2B" width="1.446" height="9.339"/>
					</g>
					<g>
						<rect x="401.438" y="290.007" fill="#FFFFFF" width="17.311" height="9.342"/>
						<rect x="417.305" y="290.007" fill="#C58D2B" width="1.444" height="9.342"/>
					</g>
					<g>
						<rect x="401.523" y="304.019" fill="#FFFFFF" width="17.312" height="9.338"/>
						<rect x="417.39" y="304.019" fill="#C58D2B" width="1.446" height="9.338"/>
					</g>
					<g>
						<rect x="401.696" y="317.854" fill="#FFFFFF" width="17.311" height="9.34"/>
						<rect x="417.567" y="317.854" fill="#C58D2B" width="1.44" height="9.34"/>
					</g>
					<g>
						<rect x="401.696" y="331.604" fill="#FFFFFF" width="17.311" height="9.338"/>
						<rect x="417.567" y="331.604" fill="#C58D2B" width="1.44" height="9.338"/>
					</g>
					<g>
						<rect x="401.523" y="221.783" fill="#FFFFFF" width="17.312" height="9.339"/>
						<rect x="417.39" y="221.783" fill="#C58D2B" width="1.446" height="9.339"/>
					</g>
				</g>
				<g>
					<g>
						<rect x="422.139" y="185.14" fill="#FFFFFF" width="9.444" height="17.121"/>
						<rect x="422.139" y="200.834" fill="#C58D2B" width="9.444" height="1.426"/>
					</g>
					<g>
						<rect x="515.36" y="185.031" fill="#FFFFFF" width="9.445" height="17.124"/>
						<rect x="515.36" y="200.726" fill="#C58D2B" width="9.445" height="1.429"/>
					</g>
					<g>
						<rect x="528.455" y="185.137" fill="#FFFFFF" width="9.443" height="17.124"/>
						<rect x="528.455" y="200.834" fill="#C58D2B" width="9.443" height="1.426"/>
					</g>
					<g>
						<rect x="489.194" y="185.011" fill="#FFFFFF" width="9.444" height="17.122"/>
						<rect x="489.194" y="200.707" fill="#C58D2B" width="9.444" height="1.426"/>
					</g>
					<g>
						<rect x="502.268" y="185.052" fill="#FFFFFF" width="9.445" height="17.122"/>
						<rect x="502.268" y="200.748" fill="#C58D2B" width="9.445" height="1.426"/>
					</g>
					<g>
						<rect x="475.997" y="185.054" fill="#FFFFFF" width="9.441" height="17.122"/>
						<rect x="475.997" y="200.75" fill="#C58D2B" width="9.441" height="1.426"/>
					</g>
					<g>
						<rect x="462.421" y="185.097" fill="#FFFFFF" width="9.443" height="17.121"/>
						<rect x="462.421" y="200.792" fill="#C58D2B" width="9.443" height="1.427"/>
					</g>
					<g>
						<rect x="449.176" y="185.05" fill="#FFFFFF" width="9.443" height="17.124"/>
						<rect x="449.176" y="200.748" fill="#C58D2B" width="9.443" height="1.426"/>
					</g>
					<g>
						<rect x="435.314" y="185.202" fill="#FFFFFF" width="9.445" height="17.123"/>
						<rect x="435.314" y="200.898" fill="#C58D2B" width="9.445" height="1.426"/>
					</g>
					<g>
						<rect x="541.526" y="185.14" fill="#FFFFFF" width="9.441" height="17.121"/>
						<rect x="541.526" y="200.834" fill="#C58D2B" width="9.441" height="1.426"/>
					</g>
					<g>
						<rect x="567.207" y="185.097" fill="#FFFFFF" width="9.443" height="17.121"/>
						<rect x="567.207" y="200.792" fill="#C58D2B" width="9.443" height="1.427"/>
					</g>
					<g>
						<rect x="579.995" y="185.116" fill="#FFFFFF" width="9.445" height="17.125"/>
						<rect x="579.995" y="200.813" fill="#C58D2B" width="9.445" height="1.428"/>
					</g>
					<g>
						<rect x="554.335" y="185.14" fill="#FFFFFF" width="9.443" height="17.121"/>
						<rect x="554.335" y="200.834" fill="#C58D2B" width="9.443" height="1.426"/>
					</g>
					<g>
						<rect x="592.628" y="185.097" fill="#FFFFFF" width="9.446" height="17.121"/>
						<rect x="592.628" y="200.792" fill="#C58D2B" width="9.446" height="1.427"/>
					</g>
				</g>
				<g>
					<g>
						<rect x="421.264" y="370.823" fill="#FFFFFF" width="9.444" height="17.121"/>
						<rect x="421.264" y="370.823" fill="#C58D2B" width="9.444" height="1.428"/>
					</g>
					<g>
						<rect x="514.49" y="370.931" fill="#FFFFFF" width="9.441" height="17.122"/>
						<rect x="514.49" y="370.931" fill="#C58D2B" width="9.441" height="1.428"/>
					</g>
					<g>
						<rect x="527.58" y="370.823" fill="#FFFFFF" width="9.444" height="17.125"/>
						<rect x="527.58" y="370.823" fill="#C58D2B" width="9.444" height="1.428"/>
					</g>
					<g>
						<rect x="488.32" y="370.951" fill="#FFFFFF" width="9.443" height="17.121"/>
						<rect x="488.32" y="370.951" fill="#C58D2B" width="9.443" height="1.428"/>
					</g>
					<g>
						<rect x="501.396" y="370.912" fill="#FFFFFF" width="9.442" height="17.122"/>
						<rect x="501.396" y="370.912" fill="#C58D2B" width="9.442" height="1.425"/>
					</g>
					<g>
						<rect x="475.122" y="370.908" fill="#FFFFFF" width="9.441" height="17.122"/>
						<rect x="475.122" y="370.908" fill="#C58D2B" width="9.441" height="1.429"/>
					</g>
					<g>
						<rect x="461.546" y="370.865" fill="#FFFFFF" width="9.443" height="17.121"/>
						<rect x="461.546" y="370.865" fill="#C58D2B" width="9.443" height="1.429"/>
					</g>
					<g>
						<rect x="448.301" y="370.912" fill="#FFFFFF" width="9.443" height="17.122"/>
						<rect x="448.301" y="370.912" fill="#C58D2B" width="9.443" height="1.425"/>
					</g>
					<g>
						<rect x="434.442" y="370.759" fill="#FFFFFF" width="9.443" height="17.123"/>
						<rect x="434.442" y="370.759" fill="#C58D2B" width="9.443" height="1.427"/>
					</g>
					<g>
						<rect x="540.649" y="370.823" fill="#FFFFFF" width="9.443" height="17.121"/>
						<rect x="540.649" y="370.823" fill="#C58D2B" width="9.443" height="1.428"/>
					</g>
					<g>
						<rect x="566.334" y="370.865" fill="#FFFFFF" width="9.441" height="17.121"/>
						<rect x="566.334" y="370.865" fill="#C58D2B" width="9.441" height="1.429"/>
					</g>
					<g>
						<rect x="579.124" y="370.845" fill="#FFFFFF" width="9.441" height="17.123"/>
						<rect x="579.124" y="370.845" fill="#C58D2B" width="9.441" height="1.426"/>
					</g>
					<g>
						<rect x="553.46" y="370.823" fill="#FFFFFF" width="9.443" height="17.121"/>
						<rect x="553.46" y="370.823" fill="#C58D2B" width="9.443" height="1.428"/>
					</g>
					<g>
						<rect x="591.757" y="370.865" fill="#FFFFFF" width="9.442" height="17.121"/>
						<rect x="591.757" y="370.865" fill="#C58D2B" width="9.442" height="1.429"/>
					</g>
				</g>
			</g>
		</g>
		<g>
			<g>
				<path fill="#FFFFFF" d="M539.491,263.365v-4.558c0-0.863,0.145-1.459,0.434-1.785c0.29-0.326,0.88-0.49,1.772-0.49h12.262
					c0.916,0,1.561,0.164,1.935,0.49s0.561,0.934,0.561,1.819v4.416c0,1.646-0.519,2.469-1.555,2.469
					c-1.037,0-1.556-0.823-1.556-2.469v-3.506h-3.726v3.041c0,1.669-0.53,2.504-1.591,2.504c-1.013,0-1.52-0.835-1.52-2.504v-3.041
					h-3.906v3.613c0,1.646-0.53,2.468-1.591,2.468C539.998,265.833,539.491,265.011,539.491,263.365z"/>
				<path fill="#FFFFFF" d="M540.432,276.852c-0.917-1.192-1.374-2.683-1.374-4.472c0-1.169,0.156-2.218,0.47-3.147
					c0.434-1.408,1.108-2.111,2.025-2.111c1.013,0,1.52,0.549,1.52,1.646c0,0.382-0.157,1.038-0.471,1.968
					c-0.289,0.954-0.434,1.693-0.434,2.218c0,0.596,0.198,1.114,0.597,1.557c0.397,0.44,0.897,0.661,1.501,0.661
					c0.796,0,1.41-0.357,1.845-1.073c0.24-0.405,0.53-1.121,0.868-2.146c0.457-1.503,0.964-2.576,1.519-3.22
					c0.747-0.931,1.796-1.396,3.146-1.396c1.615,0,2.918,0.596,3.906,1.789c0.917,1.12,1.375,2.504,1.375,4.149
					c0,0.953-0.145,1.848-0.435,2.683c-0.434,1.121-1.061,1.682-1.881,1.682c-0.916,0-1.374-0.489-1.374-1.467
					c0-0.286,0.096-0.787,0.289-1.503c0.193-0.715,0.29-1.229,0.29-1.538c0-1.479-0.592-2.218-1.772-2.218
					c-0.7,0-1.242,0.441-1.628,1.324c-0.097,0.19-0.199,0.446-0.308,0.769s-0.247,0.721-0.416,1.198
					c-1.013,3.028-2.7,4.543-5.063,4.543C542.891,278.747,541.492,278.115,540.432,276.852z"/>
				<path fill="#FFFFFF" d="M546.603,291.13c-1.003-0.999-1.505-2.399-1.505-4.203v-2.922h-3.292c-1.663,0-2.495-0.537-2.495-1.609
					c0-1.073,0.833-1.61,2.501-1.61h12.179c0.917,0,1.563,0.167,1.938,0.5c0.374,0.334,0.562,0.954,0.562,1.86v3.542
					c0,1.789-0.472,3.22-1.415,4.292c-1.016,1.097-2.431,1.646-4.245,1.646S547.606,292.127,546.603,291.13z M553.38,286.038v-2.033
					h-5.172v2.033c0,1.983,0.88,2.976,2.64,2.976C552.536,289.014,553.38,288.021,553.38,286.038z"/>
				<path fill="#FFFFFF" d="M540.468,303.824c-0.965-1.098-1.446-2.482-1.446-4.15c0-1.384,0.41-2.601,1.229-3.648
					c1.061-1.336,2.157-2.003,3.291-2.003c1.061,0,1.592,0.477,1.592,1.43c0,0.525-0.326,1.025-0.977,1.502
					c-0.386,0.264-0.693,0.49-0.923,0.68c-0.229,0.191-0.392,0.334-0.488,0.43c-0.41,0.478-0.614,1.038-0.614,1.683
					c0,0.666,0.247,1.221,0.741,1.662s1.091,0.662,1.79,0.662c0.796,0,1.375-0.262,1.736-0.787c0.289-0.406,0.507-1.025,0.651-1.859
					c0.145-0.954,0.627-1.431,1.446-1.431c0.771,0,1.267,0.465,1.483,1.394c0.313,1.359,1.013,2.039,2.098,2.039
					c1.181,0,1.772-0.572,1.772-1.717c0-0.596-0.326-1.228-0.977-1.896c-0.82-0.834-1.23-1.49-1.23-1.967
					c0-0.382,0.139-0.698,0.416-0.948s0.609-0.375,0.995-0.375c1.085,0,2.025,0.631,2.821,1.896
					c0.699,1.121,1.049,2.241,1.049,3.362c0,0.668-0.108,1.299-0.326,1.896c-0.217,0.596-0.519,1.113-0.903,1.555
					c-0.387,0.441-0.856,0.787-1.411,1.037c-0.555,0.252-1.17,0.377-1.845,0.377c-1.302,0-2.508-0.729-3.616-2.182
					c-1.109,2.025-2.593,3.039-4.449,3.039C542.758,305.504,541.456,304.943,540.468,303.824z"/>
				<path fill="#FFFFFF" d="M539.491,316.271v-6.904c0-1.357,0.507-2.037,1.52-2.037c0.481,0,1.205,0.416,2.17,1.252
					c0.265,0.236,0.561,0.5,0.886,0.785c0.326,0.287,0.693,0.621,1.104,1.002c3.352,2.934,5.57,4.4,6.655,4.4
					c1.325,0,1.989-0.596,1.989-1.789c0-0.953-0.676-1.668-2.025-2.146c-0.724-0.262-1.17-0.453-1.339-0.572
					c-0.313-0.238-0.47-0.584-0.47-1.037c0-1.072,0.578-1.609,1.736-1.609c1.061,0,2.085,0.381,3.074,1.145
					c1.422,1.145,2.134,2.6,2.134,4.365c0,0.738-0.115,1.43-0.344,2.074c-0.229,0.645-0.555,1.191-0.977,1.645
					s-0.935,0.811-1.537,1.074c-0.604,0.262-1.278,0.393-2.025,0.393c-1.278,0-2.653-0.535-4.123-1.609
					c-1.158-0.834-2.93-2.408-5.317-4.721v4.291c0,1.646-0.53,2.469-1.591,2.469C539.998,318.74,539.491,317.918,539.491,316.271z"
					/>
			</g>
		</g>
	</g>
	<g>
		<rect x="360.198" y="364.895" fill="#FFFFFF" width="7.618" height="13.105"/>
		<rect x="350.332" y="345.484" fill="#FFFFFF" width="7.043" height="11.493"/>
		<rect x="369.983" y="345.482" fill="#FFFFFF" width="6.276" height="11.495"/>
		<rect x="346.9" y="355.444" fill="#262626" width="34.402" height="11.244"/>
	</g>
	<g>
		<rect x="314.125" y="364.895" fill="#FFFFFF" width="7.618" height="13.105"/>
		<rect x="304.258" y="345.484" fill="#FFFFFF" width="7.043" height="11.493"/>
		<rect x="323.91" y="345.482" fill="#FFFFFF" width="6.276" height="11.495"/>
		<rect x="300.827" y="355.444" fill="#262626" width="34.402" height="11.244"/>
	</g>
	<g>
		<g>
			<g>
				<g>
					<polygon fill="#FFFFFF" points="199.554,411.084 193.444,416.998 179.444,416.998 173.333,411.084 173.333,397.033 
						179.444,391.117 193.444,391.117 199.554,397.033 					"/>
					<polygon fill="#1F5128" points="197.22,409.831 192.197,414.695 180.689,414.695 175.667,409.831 175.667,398.283 
						180.689,393.42 192.197,393.42 197.22,398.283 					"/>
					<circle fill="#E7B721" cx="186.444" cy="404.058" r="9.12"/>
					<circle fill="#FFFFFF" cx="186.445" cy="404.057" r="5.829"/>
				</g>
				<g>
					<polygon fill="#FFFFFF" points="225.773,411.084 219.664,416.998 205.664,416.998 199.554,411.084 199.554,397.033 
						205.664,391.117 219.664,391.117 225.773,397.033 					"/>
					<polygon fill="#1F5128" points="223.439,409.831 218.417,414.695 206.909,414.695 201.887,409.831 201.887,398.283 
						206.909,393.42 218.417,393.42 223.439,398.283 					"/>
					<circle fill="#E7B721" cx="212.664" cy="404.058" r="9.12"/>
					<circle fill="#FFFFFF" cx="212.665" cy="404.057" r="5.829"/>
				</g>
				<g>
					<polygon fill="#FFFFFF" points="251.994,411.084 245.884,416.998 231.884,416.998 225.773,411.084 225.773,397.033 
						231.884,391.117 245.884,391.117 251.994,397.033 					"/>
					<polygon fill="#1F5128" points="249.66,409.831 244.638,414.695 233.129,414.695 228.107,409.831 228.107,398.283 
						233.129,393.42 244.638,393.42 249.66,398.283 					"/>
					<circle fill="#E7B721" cx="238.884" cy="404.058" r="9.12"/>
					<circle fill="#FFFFFF" cx="238.885" cy="404.057" r="5.829"/>
				</g>
				<g>
					<polygon fill="#FFFFFF" points="278.213,411.084 272.104,416.998 258.104,416.998 251.994,411.084 251.994,397.033 
						258.104,391.117 272.104,391.117 278.213,397.033 					"/>
					<polygon fill="#1F5128" points="275.879,409.831 270.857,414.695 259.349,414.695 254.327,409.831 254.327,398.283 
						259.349,393.42 270.857,393.42 275.879,398.283 					"/>
					<circle fill="#E7B721" cx="265.104" cy="404.058" r="9.12"/>
					<circle fill="#FFFFFF" cx="265.105" cy="404.057" r="5.829"/>
				</g>
			</g>
			<g>
				<g>
					<polygon fill="#FFFFFF" points="304.434,411.085 298.324,416.999 284.324,416.999 278.213,411.085 278.213,397.034 
						284.324,391.118 298.324,391.118 304.434,397.034 					"/>
					<polygon fill="#1F5128" points="302.1,409.832 297.078,414.696 285.569,414.696 280.547,409.832 280.547,398.284 
						285.569,393.421 297.078,393.421 302.1,398.284 					"/>
					<circle fill="#E7B721" cx="291.324" cy="404.059" r="9.12"/>
					<circle fill="#FFFFFF" cx="291.325" cy="404.058" r="5.829"/>
				</g>
				<g>
					<polygon fill="#FFFFFF" points="330.653,411.085 324.543,416.999 310.543,416.999 304.434,411.085 304.434,397.034 
						310.543,391.118 324.543,391.118 330.653,397.034 					"/>
					<polygon fill="#1F5128" points="328.319,409.832 323.297,414.696 311.789,414.696 306.767,409.832 306.767,398.284 
						311.789,393.421 323.297,393.421 328.319,398.284 					"/>
					<circle fill="#E7B721" cx="317.543" cy="404.059" r="9.12"/>
					<circle fill="#FFFFFF" cx="317.545" cy="404.058" r="5.829"/>
				</g>
				<g>
					<polygon fill="#FFFFFF" points="356.874,411.085 350.764,416.999 336.764,416.999 330.653,411.085 330.653,397.034 
						336.764,391.118 350.764,391.118 356.874,397.034 					"/>
					<polygon fill="#1F5128" points="354.54,409.832 349.518,414.696 338.009,414.696 332.987,409.832 332.987,398.284 
						338.009,393.421 349.518,393.421 354.54,398.284 					"/>
					<circle fill="#E7B721" cx="343.764" cy="404.059" r="9.12"/>
					<circle fill="#FFFFFF" cx="343.765" cy="404.058" r="5.829"/>
				</g>
				<g>
					<polygon fill="#FFFFFF" points="383.093,411.085 376.984,416.999 362.983,416.999 356.874,411.085 356.874,397.034 
						362.983,391.118 376.984,391.118 383.093,397.034 					"/>
					<polygon fill="#1F5128" points="380.759,409.832 375.737,414.696 364.229,414.696 359.207,409.832 359.207,398.284 
						364.229,393.421 375.737,393.421 380.759,398.284 					"/>
					<circle fill="#E7B721" cx="369.983" cy="404.059" r="9.12"/>
					<circle fill="#FFFFFF" cx="369.985" cy="404.058" r="5.829"/>
				</g>
			</g>
		</g>
		<g>
			<g>
				<g>
					<polygon fill="#FFFFFF" points="409.313,411.084 403.203,416.998 389.204,416.998 383.093,411.084 383.093,397.033 
						389.204,391.117 403.203,391.117 409.313,397.033 					"/>
					<polygon fill="#1F5128" points="406.979,409.831 401.958,414.695 390.449,414.695 385.427,409.831 385.427,398.283 
						390.449,393.42 401.958,393.42 406.979,398.283 					"/>
					<circle fill="#E7B721" cx="396.204" cy="404.058" r="9.12"/>
					<circle fill="#FFFFFF" cx="396.205" cy="404.057" r="5.829"/>
				</g>
				<g>
					<polygon fill="#FFFFFF" points="435.533,411.084 429.424,416.998 415.424,416.998 409.313,411.084 409.313,397.033 
						415.424,391.117 429.424,391.117 435.533,397.033 					"/>
					<polygon fill="#1F5128" points="433.199,409.831 428.178,414.695 416.669,414.695 411.647,409.831 411.647,398.283 
						416.669,393.42 428.178,393.42 433.199,398.283 					"/>
					<circle fill="#E7B721" cx="422.424" cy="404.058" r="9.12"/>
					<circle fill="#FFFFFF" cx="422.424" cy="404.057" r="5.829"/>
				</g>
				<g>
					<polygon fill="#FFFFFF" points="461.752,411.084 455.645,416.998 441.643,416.998 435.533,411.084 435.533,397.033 
						441.643,391.117 455.645,391.117 461.752,397.033 					"/>
					<polygon fill="#1F5128" points="459.42,409.831 454.396,414.695 442.889,414.695 437.865,409.831 437.865,398.283 
						442.889,393.42 454.396,393.42 459.42,398.283 					"/>
					<circle fill="#E7B721" cx="448.643" cy="404.058" r="9.12"/>
					<circle fill="#FFFFFF" cx="448.645" cy="404.057" r="5.829"/>
				</g>
				<g>
					<polygon fill="#FFFFFF" points="487.973,411.084 481.863,416.998 467.863,416.998 461.752,411.084 461.752,397.033 
						467.863,391.117 481.863,391.117 487.973,397.033 					"/>
					<polygon fill="#1F5128" points="485.639,409.831 480.617,414.695 469.107,414.695 464.086,409.831 464.086,398.283 
						469.107,393.42 480.617,393.42 485.639,398.283 					"/>
					<circle fill="#E7B721" cx="474.863" cy="404.058" r="9.12"/>
					<circle fill="#FFFFFF" cx="474.865" cy="404.057" r="5.829"/>
				</g>
			</g>
			<g>
				<g>
					<polygon fill="#FFFFFF" points="514.193,411.085 508.084,416.999 494.084,416.999 487.973,411.085 487.973,397.034 
						494.084,391.118 508.084,391.118 514.193,397.034 					"/>
					<polygon fill="#1F5128" points="511.859,409.832 506.836,414.696 495.328,414.696 490.307,409.832 490.307,398.284 
						495.328,393.421 506.836,393.421 511.859,398.284 					"/>
					<circle fill="#E7B721" cx="501.084" cy="404.059" r="9.12"/>
					<path fill="#FFFFFF" d="M501.086,398.229c3.215,0,5.828,2.608,5.828,5.829c0,3.22-2.613,5.828-5.828,5.828
						c-3.221,0-5.832-2.608-5.832-5.828C495.254,400.838,497.865,398.229,501.086,398.229z"/>
				</g>
				<g>
					<polygon fill="#FFFFFF" points="540.412,411.085 534.303,416.999 520.303,416.999 514.193,411.085 514.193,397.034 
						520.303,391.118 534.303,391.118 540.412,397.034 					"/>
					<polygon fill="#1F5128" points="538.078,409.832 533.057,414.696 521.549,414.696 516.527,409.832 516.527,398.284 
						521.549,393.421 533.057,393.421 538.078,398.284 					"/>
					<circle fill="#E7B721" cx="527.305" cy="404.059" r="9.12"/>
					<circle fill="#FFFFFF" cx="527.305" cy="404.058" r="5.829"/>
				</g>
				<g>
					<polygon fill="#FFFFFF" points="566.633,411.085 560.523,416.999 546.523,416.999 540.412,411.085 540.412,397.034 
						546.523,391.118 560.523,391.118 566.633,397.034 					"/>
					<polygon fill="#1F5128" points="564.299,409.832 559.277,414.696 547.768,414.696 542.746,409.832 542.746,398.284 
						547.768,393.421 559.277,393.421 564.299,398.284 					"/>
					<circle fill="#E7B721" cx="553.523" cy="404.059" r="9.12"/>
					<path fill="#FFFFFF" d="M553.525,398.229c3.217,0,5.826,2.608,5.826,5.829c0,3.22-2.609,5.828-5.826,5.828
						c-3.223,0-5.832-2.608-5.832-5.828C547.693,400.838,550.303,398.229,553.525,398.229z"/>
				</g>
				<g>
					<polygon fill="#FFFFFF" points="592.854,411.085 586.742,416.999 572.744,416.999 566.633,411.085 566.633,397.034 
						572.744,391.118 586.742,391.118 592.854,397.034 					"/>
					<polygon fill="#1F5128" points="590.52,409.832 585.498,414.696 573.988,414.696 568.967,409.832 568.967,398.284 
						573.988,393.421 585.498,393.421 590.52,398.284 					"/>
					<circle fill="#E7B721" cx="579.742" cy="404.059" r="9.12"/>
					<circle fill="#FFFFFF" cx="579.744" cy="404.058" r="5.829"/>
				</g>
			</g>
		</g>
		<g>
			<g>
				<polygon fill="#FFFFFF" points="619.074,411.084 612.963,416.998 598.965,416.998 592.854,411.084 592.854,397.033 
					598.965,391.117 612.963,391.117 619.074,397.033 				"/>
				<polygon fill="#1F5128" points="616.74,409.831 611.719,414.695 600.209,414.695 595.188,409.831 595.188,398.283 
					600.209,393.42 611.719,393.42 616.74,398.283 				"/>
				<circle fill="#E7B721" cx="605.963" cy="404.058" r="9.12"/>
				<circle fill="#FFFFFF" cx="605.965" cy="404.057" r="5.829"/>
			</g>
			<g>
				<polygon fill="#FFFFFF" points="645.295,411.084 639.186,416.998 625.184,416.998 619.074,411.084 619.074,397.033 
					625.184,391.117 639.186,391.117 645.295,397.033 				"/>
				<polygon fill="#1F5128" points="642.961,409.831 637.939,414.695 626.43,414.695 621.408,409.831 621.408,398.283 
					626.43,393.42 637.939,393.42 642.961,398.283 				"/>
				<circle fill="#E7B721" cx="632.186" cy="404.058" r="9.12"/>
				<circle fill="#FFFFFF" cx="632.186" cy="404.057" r="5.829"/>
			</g>
			<g>
				<polygon fill="#FFFFFF" points="671.516,411.084 665.406,416.998 651.404,416.998 645.295,411.084 645.295,397.033 
					651.404,391.117 665.406,391.117 671.516,397.033 				"/>
				<polygon fill="#1F5128" points="669.182,409.831 664.158,414.695 652.65,414.695 647.629,409.831 647.629,398.283 
					652.65,393.42 664.158,393.42 669.182,398.283 				"/>
				<circle fill="#E7B721" cx="658.404" cy="404.058" r="9.12"/>
				<circle fill="#FFFFFF" cx="658.406" cy="404.057" r="5.829"/>
			</g>
		</g>
	</g>
	<g>
		<g>
			<g>
				<g>
					<polygon fill="#FFFFFF" points="199.345,176.027 193.235,181.941 179.235,181.941 173.125,176.027 173.125,161.976 
						179.235,156.06 193.235,156.06 199.345,161.976 					"/>
					<polygon fill="#1F5128" points="197.011,174.774 191.989,179.638 180.48,179.638 175.459,174.774 175.459,163.226 
						180.48,158.363 191.989,158.363 197.011,163.226 					"/>
					<circle fill="#E7B721" cx="186.235" cy="169.001" r="9.12"/>
					<circle fill="#FFFFFF" cx="186.237" cy="169" r="5.829"/>
				</g>
				<g>
					<polygon fill="#FFFFFF" points="225.565,176.027 219.455,181.941 205.455,181.941 199.345,176.027 199.345,161.976 
						205.455,156.06 219.455,156.06 225.565,161.976 					"/>
					<polygon fill="#1F5128" points="223.231,174.774 218.209,179.638 206.701,179.638 201.679,174.774 201.679,163.226 
						206.701,158.363 218.209,158.363 223.231,163.226 					"/>
					<circle fill="#E7B721" cx="212.455" cy="169.001" r="9.12"/>
					<circle fill="#FFFFFF" cx="212.457" cy="169" r="5.829"/>
				</g>
				<g>
					<polygon fill="#FFFFFF" points="251.785,176.027 245.675,181.941 231.675,181.941 225.565,176.027 225.565,161.976 
						231.675,156.06 245.675,156.06 251.785,161.976 					"/>
					<polygon fill="#1F5128" points="249.451,174.774 244.429,179.638 232.92,179.638 227.899,174.774 227.899,163.226 
						232.92,158.363 244.429,158.363 249.451,163.226 					"/>
					<circle fill="#E7B721" cx="238.675" cy="169.001" r="9.12"/>
					<circle fill="#FFFFFF" cx="238.677" cy="169" r="5.829"/>
				</g>
				<g>
					<polygon fill="#FFFFFF" points="278.005,176.027 271.895,181.941 257.895,181.941 251.785,176.027 251.785,161.976 
						257.895,156.06 271.895,156.06 278.005,161.976 					"/>
					<polygon fill="#1F5128" points="275.671,174.774 270.649,179.638 259.141,179.638 254.119,174.774 254.119,163.226 
						259.141,158.363 270.649,158.363 275.671,163.226 					"/>
					<circle fill="#E7B721" cx="264.895" cy="169.001" r="9.12"/>
					<circle fill="#FFFFFF" cx="264.896" cy="169" r="5.829"/>
				</g>
			</g>
			<g>
				<g>
					<polygon fill="#FFFFFF" points="304.225,176.028 298.115,181.942 284.115,181.942 278.005,176.028 278.005,161.977 
						284.115,156.061 298.115,156.061 304.225,161.977 					"/>
					<polygon fill="#1F5128" points="301.891,174.775 296.869,179.639 285.36,179.639 280.339,174.775 280.339,163.227 
						285.36,158.364 296.869,158.364 301.891,163.227 					"/>
					<circle fill="#E7B721" cx="291.115" cy="169.002" r="9.12"/>
					<circle fill="#FFFFFF" cx="291.117" cy="169.001" r="5.829"/>
				</g>
				<g>
					<polygon fill="#FFFFFF" points="330.445,176.028 324.335,181.942 310.335,181.942 304.225,176.028 304.225,161.977 
						310.335,156.061 324.335,156.061 330.445,161.977 					"/>
					<polygon fill="#1F5128" points="328.111,174.775 323.089,179.639 311.581,179.639 306.559,174.775 306.559,163.227 
						311.581,158.364 323.089,158.364 328.111,163.227 					"/>
					<circle fill="#E7B721" cx="317.335" cy="169.002" r="9.12"/>
					<circle fill="#FFFFFF" cx="317.336" cy="169.001" r="5.829"/>
				</g>
				<g>
					<polygon fill="#FFFFFF" points="356.665,176.028 350.555,181.942 336.555,181.942 330.445,176.028 330.445,161.977 
						336.555,156.061 350.555,156.061 356.665,161.977 					"/>
					<polygon fill="#1F5128" points="354.331,174.775 349.309,179.639 337.8,179.639 332.779,174.775 332.779,163.227 
						337.8,158.364 349.309,158.364 354.331,163.227 					"/>
					<circle fill="#E7B721" cx="343.555" cy="169.002" r="9.12"/>
					<circle fill="#FFFFFF" cx="343.557" cy="169.001" r="5.829"/>
				</g>
				<g>
					<polygon fill="#FFFFFF" points="382.885,176.028 376.775,181.942 362.775,181.942 356.665,176.028 356.665,161.977 
						362.775,156.061 376.775,156.061 382.885,161.977 					"/>
					<polygon fill="#1F5128" points="380.551,174.775 375.529,179.639 364.021,179.639 358.999,174.775 358.999,163.227 
						364.021,158.364 375.529,158.364 380.551,163.227 					"/>
					<circle fill="#E7B721" cx="369.775" cy="169.002" r="9.12"/>
					<circle fill="#FFFFFF" cx="369.776" cy="169.001" r="5.829"/>
				</g>
			</g>
		</g>
		<g>
			<g>
				<g>
					<polygon fill="#FFFFFF" points="409.105,176.027 402.994,181.941 388.995,181.941 382.885,176.027 382.885,161.976 
						388.995,156.06 402.994,156.06 409.105,161.976 					"/>
					<polygon fill="#1F5128" points="406.771,174.774 401.749,179.638 390.24,179.638 385.219,174.774 385.219,163.226 
						390.24,158.363 401.749,158.363 406.771,163.226 					"/>
					<circle fill="#E7B721" cx="395.995" cy="169.001" r="9.12"/>
					<circle fill="#FFFFFF" cx="395.997" cy="169" r="5.829"/>
				</g>
				<g>
					<polygon fill="#FFFFFF" points="435.324,176.027 429.215,181.941 415.215,181.941 409.105,176.027 409.105,161.976 
						415.215,156.06 429.215,156.06 435.324,161.976 					"/>
					<polygon fill="#1F5128" points="432.99,174.774 427.969,179.638 416.46,179.638 411.439,174.774 411.439,163.226 
						416.46,158.363 427.969,158.363 432.99,163.226 					"/>
					<circle fill="#E7B721" cx="422.215" cy="169.001" r="9.12"/>
					<circle fill="#FFFFFF" cx="422.215" cy="169" r="5.829"/>
				</g>
				<g>
					<polygon fill="#FFFFFF" points="461.543,176.027 455.436,181.941 441.434,181.941 435.324,176.027 435.324,161.976 
						441.434,156.06 455.436,156.06 461.543,161.976 					"/>
					<polygon fill="#1F5128" points="459.211,174.774 454.188,179.638 442.68,179.638 437.656,174.774 437.656,163.226 
						442.68,158.363 454.188,158.363 459.211,163.226 					"/>
					<circle fill="#E7B721" cx="448.434" cy="169.001" r="9.12"/>
					<circle fill="#FFFFFF" cx="448.436" cy="169" r="5.829"/>
				</g>
				<g>
					<polygon fill="#FFFFFF" points="487.764,176.027 481.654,181.941 467.654,181.941 461.543,176.027 461.543,161.976 
						467.654,156.06 481.654,156.06 487.764,161.976 					"/>
					<polygon fill="#1F5128" points="485.43,174.774 480.408,179.638 468.898,179.638 463.877,174.774 463.877,163.226 
						468.898,158.363 480.408,158.363 485.43,163.226 					"/>
					<circle fill="#E7B721" cx="474.654" cy="169.001" r="9.12"/>
					<circle fill="#FFFFFF" cx="474.656" cy="169" r="5.829"/>
				</g>
			</g>
			<g>
				<g>
					<polygon fill="#FFFFFF" points="513.984,176.028 507.875,181.942 493.875,181.942 487.764,176.028 487.764,161.977 
						493.875,156.061 507.875,156.061 513.984,161.977 					"/>
					<polygon fill="#1F5128" points="511.65,174.775 506.627,179.639 495.119,179.639 490.098,174.775 490.098,163.227 
						495.119,158.364 506.627,158.364 511.65,163.227 					"/>
					<circle fill="#E7B721" cx="500.875" cy="169.002" r="9.12"/>
					<path fill="#FFFFFF" d="M500.877,163.172c3.215,0,5.828,2.608,5.828,5.829c0,3.22-2.613,5.828-5.828,5.828
						c-3.221,0-5.832-2.608-5.832-5.828C495.045,165.781,497.656,163.172,500.877,163.172z"/>
				</g>
				<g>
					<polygon fill="#FFFFFF" points="540.203,176.028 534.094,181.942 520.094,181.942 513.984,176.028 513.984,161.977 
						520.094,156.061 534.094,156.061 540.203,161.977 					"/>
					<polygon fill="#1F5128" points="537.869,174.775 532.848,179.639 521.34,179.639 516.318,174.775 516.318,163.227 
						521.34,158.364 532.848,158.364 537.869,163.227 					"/>
					<circle fill="#E7B721" cx="527.096" cy="169.002" r="9.12"/>
					<circle fill="#FFFFFF" cx="527.096" cy="169.001" r="5.829"/>
				</g>
				<g>
					<polygon fill="#FFFFFF" points="566.424,176.028 560.314,181.942 546.314,181.942 540.203,176.028 540.203,161.977 
						546.314,156.061 560.314,156.061 566.424,161.977 					"/>
					<polygon fill="#1F5128" points="564.09,174.775 559.068,179.639 547.559,179.639 542.537,174.775 542.537,163.227 
						547.559,158.364 559.068,158.364 564.09,163.227 					"/>
					<circle fill="#E7B721" cx="553.314" cy="169.002" r="9.12"/>
					<path fill="#FFFFFF" d="M553.316,163.172c3.217,0,5.826,2.608,5.826,5.829c0,3.22-2.609,5.828-5.826,5.828
						c-3.223,0-5.832-2.608-5.832-5.828C547.484,165.781,550.094,163.172,553.316,163.172z"/>
				</g>
				<g>
					<polygon fill="#FFFFFF" points="592.645,176.028 586.533,181.942 572.535,181.942 566.424,176.028 566.424,161.977 
						572.535,156.061 586.533,156.061 592.645,161.977 					"/>
					<polygon fill="#1F5128" points="590.311,174.775 585.289,179.639 573.779,179.639 568.758,174.775 568.758,163.227 
						573.779,158.364 585.289,158.364 590.311,163.227 					"/>
					<circle fill="#E7B721" cx="579.533" cy="169.002" r="9.12"/>
					<circle fill="#FFFFFF" cx="579.535" cy="169.001" r="5.829"/>
				</g>
			</g>
		</g>
		<g>
			<g>
				<polygon fill="#FFFFFF" points="618.865,176.027 612.754,181.941 598.756,181.941 592.645,176.027 592.645,161.976 
					598.756,156.06 612.754,156.06 618.865,161.976 				"/>
				<polygon fill="#1F5128" points="616.531,174.774 611.51,179.638 600,179.638 594.979,174.774 594.979,163.226 600,158.363 
					611.51,158.363 616.531,163.226 				"/>
				<circle fill="#E7B721" cx="605.754" cy="169.001" r="9.12"/>
				<circle fill="#FFFFFF" cx="605.756" cy="169" r="5.829"/>
			</g>
			<g>
				<polygon fill="#FFFFFF" points="645.086,176.027 638.977,181.941 624.975,181.941 618.865,176.027 618.865,161.976 
					624.975,156.06 638.977,156.06 645.086,161.976 				"/>
				<polygon fill="#1F5128" points="642.752,174.774 637.73,179.638 626.221,179.638 621.199,174.774 621.199,163.226 
					626.221,158.363 637.73,158.363 642.752,163.226 				"/>
				<circle fill="#E7B721" cx="631.977" cy="169.001" r="9.12"/>
				<circle fill="#FFFFFF" cx="631.977" cy="169" r="5.829"/>
			</g>
			<g>
				<polygon fill="#FFFFFF" points="671.307,176.027 665.197,181.941 651.195,181.941 645.086,176.027 645.086,161.976 
					651.195,156.06 665.197,156.06 671.307,161.976 				"/>
				<polygon fill="#1F5128" points="668.973,174.774 663.949,179.638 652.441,179.638 647.42,174.774 647.42,163.226 
					652.441,158.363 663.949,158.363 668.973,163.226 				"/>
				<circle fill="#E7B721" cx="658.195" cy="169.001" r="9.12"/>
				<circle fill="#FFFFFF" cx="658.197" cy="169" r="5.829"/>
			</g>
		</g>
	</g>
	<g>
		<g>
			<path fill="#FFFFFF" d="M364.839,435.159c0-0.579,0.425-0.868,1.274-0.868h5.875v-0.333c0-0.801,0.271-1.2,0.813-1.2
				c0.517,0,0.776,0.425,0.776,1.274v1.016c0,0.653-0.431,0.979-1.293,0.979h-6.17C365.264,436.027,364.839,435.737,364.839,435.159
				z"/>
		</g>
	</g>
	<g>
		<g>
			<rect x="271.686" y="331.077" fill="#FFFFFF" width="7.347" height="15.265"/>
			<rect x="248.596" y="331.065" fill="#FFFFFF" width="7.348" height="15.266"/>
			<rect x="253.558" y="332.276" fill="#C58D2B" width="20.551" height="12.54"/>
		</g>
		<g>
			<rect x="245.971" y="330.033" fill="#FFFFFF" width="1.03" height="17.867"/>
			<rect x="245.964" y="347.185" fill="#FFFFFF" width="9.977" height="0.836"/>
			<rect x="245.959" y="329.292" fill="#FFFFFF" width="9.977" height="0.837"/>
		</g>
		<g>
			<rect x="280.387" y="330.086" fill="#FFFFFF" width="1.031" height="17.866"/>
			<rect x="271.448" y="347.236" fill="#FFFFFF" width="9.977" height="0.837"/>
			<rect x="271.451" y="329.345" fill="#FFFFFF" width="9.977" height="0.836"/>
		</g>
	</g>
	<g>
		<g>
			<g>
				<rect x="319.803" y="296.256" fill="#FFFFFF" width="8.354" height="4.021"/>
				<rect x="319.797" y="308.892" fill="#FFFFFF" width="8.355" height="4.021"/>
				<rect x="320.459" y="298.949" fill="#C58D2B" width="6.863" height="11.248"/>
			</g>
			<g>
				<rect x="319.232" y="313.786" fill="#FFFFFF" width="9.779" height="0.563"/>
				<rect x="328.619" y="308.894" fill="#FFFFFF" width="0.458" height="5.46"/>
				<rect x="318.826" y="308.896" fill="#FFFFFF" width="0.458" height="5.46"/>
			</g>
			<g>
				<rect x="319.261" y="294.949" fill="#FFFFFF" width="9.778" height="0.564"/>
				<rect x="328.647" y="294.946" fill="#FFFFFF" width="0.458" height="5.46"/>
				<rect x="318.855" y="294.944" fill="#FFFFFF" width="0.458" height="5.46"/>
			</g>
		</g>
		<g>
			<g>
				<rect x="332.914" y="296.256" fill="#FFFFFF" width="8.354" height="4.021"/>
				<rect x="332.907" y="308.892" fill="#FFFFFF" width="8.355" height="4.021"/>
				<rect x="333.57" y="298.949" fill="#C58D2B" width="6.863" height="11.248"/>
			</g>
			<g>
				<rect x="332.342" y="313.786" fill="#FFFFFF" width="9.779" height="0.563"/>
				<rect x="341.729" y="308.894" fill="#FFFFFF" width="0.458" height="5.46"/>
				<rect x="331.937" y="308.896" fill="#FFFFFF" width="0.458" height="5.46"/>
			</g>
			<g>
				<rect x="332.371" y="294.949" fill="#FFFFFF" width="9.778" height="0.564"/>
				<rect x="341.757" y="294.946" fill="#FFFFFF" width="0.458" height="5.46"/>
				<rect x="331.965" y="294.944" fill="#FFFFFF" width="0.458" height="5.46"/>
			</g>
		</g>
		<g>
			<g>
				<rect x="346.244" y="296.256" fill="#FFFFFF" width="8.354" height="4.021"/>
				<rect x="346.237" y="308.892" fill="#FFFFFF" width="8.355" height="4.021"/>
				<rect x="346.9" y="298.949" fill="#C58D2B" width="6.863" height="11.248"/>
			</g>
			<g>
				<rect x="345.672" y="313.786" fill="#FFFFFF" width="9.779" height="0.563"/>
				<rect x="355.059" y="308.894" fill="#FFFFFF" width="0.458" height="5.46"/>
				<rect x="345.267" y="308.896" fill="#FFFFFF" width="0.458" height="5.46"/>
			</g>
			<g>
				<rect x="345.701" y="294.949" fill="#FFFFFF" width="9.778" height="0.564"/>
				<rect x="355.087" y="294.946" fill="#FFFFFF" width="0.458" height="5.46"/>
				<rect x="345.295" y="294.944" fill="#FFFFFF" width="0.458" height="5.46"/>
			</g>
		</g>
		<g>
			<g>
				<rect x="359.251" y="296.256" fill="#FFFFFF" width="8.354" height="4.021"/>
				<rect x="359.245" y="308.892" fill="#FFFFFF" width="8.355" height="4.021"/>
				<rect x="359.908" y="298.949" width="6.863" height="11.248"/>
			</g>
			<g>
				<rect x="358.68" y="313.786" fill="#FFFFFF" width="9.779" height="0.563"/>
				<rect x="368.067" y="308.894" fill="#FFFFFF" width="0.458" height="5.46"/>
				<rect x="358.274" y="308.896" fill="#FFFFFF" width="0.458" height="5.46"/>
			</g>
			<g>
				<rect x="358.709" y="294.949" fill="#FFFFFF" width="9.778" height="0.564"/>
				<rect x="368.095" y="294.946" fill="#FFFFFF" width="0.458" height="5.46"/>
				<rect x="358.303" y="294.944" fill="#FFFFFF" width="0.458" height="5.46"/>
			</g>
		</g>
		<g>
			<g>
				<rect x="372.171" y="296.256" fill="#FFFFFF" width="8.354" height="4.021"/>
				<rect x="372.165" y="308.892" fill="#FFFFFF" width="8.355" height="4.021"/>
				<rect x="372.828" y="298.949" fill="#C58D2B" width="6.863" height="11.248"/>
			</g>
			<g>
				<rect x="371.6" y="313.786" fill="#FFFFFF" width="9.779" height="0.563"/>
				<rect x="380.987" y="308.894" fill="#FFFFFF" width="0.458" height="5.46"/>
				<rect x="371.194" y="308.896" fill="#FFFFFF" width="0.458" height="5.46"/>
			</g>
			<g>
				<rect x="371.629" y="294.949" fill="#FFFFFF" width="9.778" height="0.564"/>
				<rect x="381.015" y="294.946" fill="#FFFFFF" width="0.458" height="5.46"/>
				<rect x="371.223" y="294.944" fill="#FFFFFF" width="0.458" height="5.46"/>
			</g>
		</g>
	</g>
	<g>
		<g>
			<g>
				<g>
					<rect x="226.103" y="324.805" fill="#FFFFFF" width="4.021" height="8.355"/>
					<rect x="238.739" y="324.811" fill="#FFFFFF" width="4.021" height="8.355"/>
					<rect x="228.796" y="325.641" width="11.248" height="6.863"/>
				</g>
				<g>
					<rect x="243.633" y="323.951" fill="#FFFFFF" width="0.563" height="9.779"/>
					<rect x="238.741" y="323.887" fill="#FFFFFF" width="5.46" height="0.457"/>
					<rect x="238.744" y="333.678" fill="#FFFFFF" width="5.46" height="0.459"/>
				</g>
				<g>
					<rect x="224.796" y="323.924" fill="#FFFFFF" width="0.564" height="9.777"/>
					<rect x="224.793" y="323.857" fill="#FFFFFF" width="5.46" height="0.459"/>
					<rect x="224.792" y="333.65" fill="#FFFFFF" width="5.46" height="0.457"/>
				</g>
			</g>
			<g>
				<g>
					<rect x="226.103" y="311.695" fill="#FFFFFF" width="4.021" height="8.354"/>
					<rect x="238.739" y="311.701" fill="#FFFFFF" width="4.021" height="8.354"/>
					<rect x="228.796" y="312.529" fill="#C58D2B" width="11.248" height="6.863"/>
				</g>
				<g>
					<rect x="243.633" y="310.842" fill="#FFFFFF" width="0.563" height="9.779"/>
					<rect x="238.741" y="310.775" fill="#FFFFFF" width="5.46" height="0.459"/>
					<rect x="238.744" y="320.568" fill="#FFFFFF" width="5.46" height="0.457"/>
				</g>
				<g>
					<rect x="224.796" y="310.813" fill="#FFFFFF" width="0.564" height="9.779"/>
					<rect x="224.793" y="310.748" fill="#FFFFFF" width="5.46" height="0.457"/>
					<rect x="224.792" y="320.539" fill="#FFFFFF" width="5.46" height="0.459"/>
				</g>
			</g>
			<g>
				<g>
					<rect x="226.103" y="298.365" fill="#FFFFFF" width="4.021" height="8.355"/>
					<rect x="238.739" y="298.371" fill="#FFFFFF" width="4.021" height="8.355"/>
					<rect x="228.796" y="299.2" fill="#4E4E4D" width="11.248" height="6.863"/>
				</g>
				<g>
					<rect x="243.633" y="297.511" fill="#FFFFFF" width="0.563" height="9.779"/>
					<rect x="238.741" y="297.446" fill="#FFFFFF" width="5.46" height="0.458"/>
					<rect x="238.744" y="307.237" fill="#FFFFFF" width="5.46" height="0.459"/>
				</g>
				<g>
					<rect x="224.796" y="297.483" fill="#FFFFFF" width="0.564" height="9.778"/>
					<rect x="224.793" y="297.417" fill="#FFFFFF" width="5.46" height="0.458"/>
					<rect x="224.792" y="307.21" fill="#FFFFFF" width="5.46" height="0.457"/>
				</g>
			</g>
			<g>
				<g>
					<rect x="226.103" y="285.357" fill="#FFFFFF" width="4.021" height="8.354"/>
					<rect x="238.739" y="285.363" fill="#FFFFFF" width="4.021" height="8.354"/>
					<rect x="228.796" y="286.192" width="11.248" height="6.863"/>
				</g>
				<g>
					<rect x="243.633" y="284.503" fill="#FFFFFF" width="0.563" height="9.779"/>
					<rect x="238.741" y="284.438" fill="#FFFFFF" width="5.46" height="0.458"/>
					<rect x="238.744" y="294.23" fill="#FFFFFF" width="5.46" height="0.458"/>
				</g>
				<g>
					<rect x="224.796" y="284.475" fill="#FFFFFF" width="0.564" height="9.778"/>
					<rect x="224.793" y="284.41" fill="#FFFFFF" width="5.46" height="0.458"/>
					<rect x="224.792" y="294.202" fill="#FFFFFF" width="5.46" height="0.458"/>
				</g>
			</g>
			<g>
				<g>
					<rect x="226.103" y="272.437" fill="#FFFFFF" width="4.021" height="8.354"/>
					<rect x="238.739" y="272.443" fill="#FFFFFF" width="4.021" height="8.354"/>
					<rect x="228.796" y="273.272" width="11.248" height="6.863"/>
				</g>
				<g>
					<rect x="243.633" y="271.583" fill="#FFFFFF" width="0.563" height="9.779"/>
					<rect x="238.741" y="271.518" fill="#FFFFFF" width="5.46" height="0.458"/>
					<rect x="238.744" y="281.31" fill="#FFFFFF" width="5.46" height="0.458"/>
				</g>
				<g>
					<rect x="224.796" y="271.555" fill="#FFFFFF" width="0.564" height="9.778"/>
					<rect x="224.793" y="271.49" fill="#FFFFFF" width="5.46" height="0.458"/>
					<rect x="224.792" y="281.282" fill="#FFFFFF" width="5.46" height="0.458"/>
				</g>
			</g>
		</g>
		<g>
			<g>
				<g>
					<rect x="226.103" y="259.487" fill="#FFFFFF" width="4.021" height="8.355"/>
					<rect x="238.739" y="259.493" fill="#FFFFFF" width="4.021" height="8.355"/>
					<rect x="228.796" y="260.323" fill="#4E4E4D" width="11.248" height="6.863"/>
				</g>
				<g>
					<rect x="243.633" y="258.634" fill="#FFFFFF" width="0.563" height="9.779"/>
					<rect x="238.741" y="258.569" fill="#FFFFFF" width="5.46" height="0.457"/>
					<rect x="238.744" y="268.36" fill="#FFFFFF" width="5.46" height="0.459"/>
				</g>
				<g>
					<rect x="224.796" y="258.606" fill="#FFFFFF" width="0.564" height="9.777"/>
					<rect x="224.793" y="258.54" fill="#FFFFFF" width="5.46" height="0.459"/>
					<rect x="224.792" y="268.333" fill="#FFFFFF" width="5.46" height="0.457"/>
				</g>
			</g>
			<g>
				<g>
					<rect x="226.103" y="246.378" fill="#FFFFFF" width="4.021" height="8.354"/>
					<rect x="238.739" y="246.384" fill="#FFFFFF" width="4.021" height="8.354"/>
					<rect x="228.796" y="247.212" fill="#C58D2B" width="11.248" height="6.863"/>
				</g>
				<g>
					<rect x="243.633" y="245.524" fill="#FFFFFF" width="0.563" height="9.779"/>
					<rect x="238.741" y="245.458" fill="#FFFFFF" width="5.46" height="0.459"/>
					<rect x="238.744" y="255.251" fill="#FFFFFF" width="5.46" height="0.457"/>
				</g>
				<g>
					<rect x="224.796" y="245.495" fill="#FFFFFF" width="0.564" height="9.779"/>
					<rect x="224.793" y="245.431" fill="#FFFFFF" width="5.46" height="0.457"/>
					<rect x="224.792" y="255.222" fill="#FFFFFF" width="5.46" height="0.459"/>
				</g>
			</g>
			<g>
				<g>
					<rect x="226.103" y="233.047" fill="#FFFFFF" width="4.021" height="8.355"/>
					<rect x="238.739" y="233.053" fill="#FFFFFF" width="4.021" height="8.355"/>
					<rect x="228.796" y="233.883" fill="#C58D2B" width="11.248" height="6.863"/>
				</g>
				<g>
					<rect x="243.633" y="232.194" fill="#FFFFFF" width="0.563" height="9.779"/>
					<rect x="238.741" y="232.128" fill="#FFFFFF" width="5.46" height="0.458"/>
					<rect x="238.744" y="241.92" fill="#FFFFFF" width="5.46" height="0.459"/>
				</g>
				<g>
					<rect x="224.796" y="232.166" fill="#FFFFFF" width="0.564" height="9.778"/>
					<rect x="224.793" y="232.1" fill="#FFFFFF" width="5.46" height="0.458"/>
					<rect x="224.792" y="241.893" fill="#FFFFFF" width="5.46" height="0.457"/>
				</g>
			</g>
		</g>
	</g>
	<g>
		<rect x="280.627" y="233.205" fill="#FFFFFF" width="15.596" height="9.479"/>
		<rect x="283.455" y="233.337" fill="#00AEEF" width="10.272" height="9.234"/>
	</g>
	<g>
		<rect x="280.627" y="245.941" fill="#FFFFFF" width="15.596" height="9.479"/>
		<rect x="283.455" y="246.074" fill="#F9ED32" width="10.272" height="9.234"/>
	</g>
	<g>
		<g>
			<g>
				<rect x="270.646" y="304.386" fill="#FFFFFF" width="21.709" height="6.948"/>
				<rect x="270.157" y="303.661" fill="#1F5128" width="2.03" height="9.833"/>
				<rect x="291.34" y="303.661" fill="#1F5128" width="2.03" height="9.833"/>
				<rect x="274.34" y="303.661" fill="#1F5128" width="2.03" height="9.833"/>
				<rect x="278.465" y="303.661" fill="#1F5128" width="2.03" height="9.833"/>
				<rect x="282.902" y="303.661" fill="#1F5128" width="2.03" height="9.833"/>
				<rect x="287.174" y="303.661" fill="#1F5128" width="2.03" height="9.833"/>
			</g>
		</g>
		<g>
			<g>
				<rect x="271.267" y="261.284" fill="#FFFFFF" width="21.119" height="6.948"/>
				<rect x="291.371" y="259.124" fill="#1F5128" width="2.03" height="9.833"/>
				<rect x="270.189" y="259.124" fill="#1F5128" width="2.03" height="9.833"/>
				<rect x="287.189" y="259.124" fill="#1F5128" width="2.03" height="9.833"/>
				<rect x="283.064" y="259.124" fill="#1F5128" width="2.03" height="9.833"/>
				<rect x="278.626" y="259.124" fill="#1F5128" width="2.03" height="9.833"/>
				<rect x="274.354" y="259.124" fill="#1F5128" width="2.03" height="9.833"/>
			</g>
		</g>
		<g>
			<g>
				<rect x="300.184" y="275.36" fill="#FFFFFF" width="6.948" height="21.709"/>
				<rect x="299.459" y="295.527" fill="#1F5128" width="9.833" height="2.03"/>
				<rect x="299.459" y="274.345" fill="#1F5128" width="9.833" height="2.03"/>
				<rect x="299.459" y="291.345" fill="#1F5128" width="9.833" height="2.03"/>
				<rect x="299.459" y="287.22" fill="#1F5128" width="9.833" height="2.03"/>
				<rect x="299.459" y="282.783" fill="#1F5128" width="9.833" height="2.03"/>
				<rect x="299.459" y="278.511" fill="#1F5128" width="9.833" height="2.03"/>
			</g>
		</g>
		<g>
			<g>
				<rect x="254.932" y="275.36" fill="#FFFFFF" width="6.948" height="21.119"/>
				<rect x="252.772" y="274.345" fill="#1F5128" width="9.833" height="2.03"/>
				<rect x="252.772" y="295.527" fill="#1F5128" width="9.833" height="2.03"/>
				<rect x="252.772" y="278.527" fill="#1F5128" width="9.833" height="2.03"/>
				<rect x="252.772" y="282.652" fill="#1F5128" width="9.833" height="2.03"/>
				<rect x="252.772" y="287.09" fill="#1F5128" width="9.833" height="2.03"/>
				<rect x="252.772" y="291.362" fill="#1F5128" width="9.833" height="2.03"/>
			</g>
		</g>
		<rect x="260.967" y="265.646" fill="#FFFFFF" width="40.957" height="41.525"/>
		<rect x="261.949" y="266.664" fill="#1F5128" width="38.878" height="39.488"/>
		<rect x="262.352" y="267.083" width="38.071" height="38.573"/>
		<rect x="263.25" y="267.849" fill="#262626" width="36.209" height="36.725"/>
	</g>
	<g>
		<g>
			<g>
				<rect x="253.674" y="367.26" fill="#FFFFFF" width="4.021" height="8.354"/>
				<rect x="241.037" y="367.253" fill="#FFFFFF" width="4.021" height="8.355"/>
				<rect x="243.753" y="367.916" fill="#C58D2B" width="11.248" height="6.863"/>
			</g>
			<g>
				<rect x="239.601" y="366.688" fill="#FFFFFF" width="0.563" height="9.778"/>
				<rect x="239.597" y="376.075" fill="#FFFFFF" width="5.46" height="0.457"/>
				<rect x="239.594" y="366.282" fill="#FFFFFF" width="5.46" height="0.458"/>
			</g>
			<g>
				<rect x="258.437" y="366.717" fill="#FFFFFF" width="0.564" height="9.778"/>
				<rect x="253.544" y="376.104" fill="#FFFFFF" width="5.46" height="0.458"/>
				<rect x="253.546" y="366.312" fill="#FFFFFF" width="5.46" height="0.457"/>
			</g>
		</g>
		<g>
			<g>
				<rect x="253.674" y="354.789" fill="#FFFFFF" width="4.021" height="8.354"/>
				<rect x="241.037" y="354.782" fill="#FFFFFF" width="4.021" height="8.355"/>
				<rect x="243.753" y="355.445" fill="#C58D2B" width="11.248" height="6.863"/>
			</g>
			<g>
				<rect x="239.601" y="354.218" fill="#FFFFFF" width="0.563" height="9.778"/>
				<rect x="239.597" y="363.604" fill="#FFFFFF" width="5.46" height="0.457"/>
				<rect x="239.594" y="353.812" fill="#FFFFFF" width="5.46" height="0.458"/>
			</g>
			<g>
				<rect x="258.437" y="354.246" fill="#FFFFFF" width="0.564" height="9.778"/>
				<rect x="253.544" y="363.633" fill="#FFFFFF" width="5.46" height="0.458"/>
				<rect x="253.546" y="353.841" fill="#FFFFFF" width="5.46" height="0.457"/>
			</g>
		</g>
	</g>
	<g>
		<g>
			<g>
				<rect x="276.33" y="367.26" fill="#FFFFFF" width="4.021" height="8.354"/>
				<rect x="263.693" y="367.253" fill="#FFFFFF" width="4.021" height="8.355"/>
				<rect x="266.409" y="367.916" width="11.248" height="6.863"/>
			</g>
			<g>
				<rect x="262.256" y="366.688" fill="#FFFFFF" width="0.563" height="9.778"/>
				<rect x="262.252" y="376.075" fill="#FFFFFF" width="5.46" height="0.457"/>
				<rect x="262.25" y="366.282" fill="#FFFFFF" width="5.46" height="0.458"/>
			</g>
			<g>
				<rect x="281.092" y="366.717" fill="#FFFFFF" width="0.564" height="9.778"/>
				<rect x="276.2" y="376.104" fill="#FFFFFF" width="5.46" height="0.458"/>
				<rect x="276.202" y="366.312" fill="#FFFFFF" width="5.46" height="0.457"/>
			</g>
		</g>
		<g>
			<g>
				<rect x="276.33" y="354.789" fill="#FFFFFF" width="4.021" height="8.354"/>
				<rect x="263.693" y="354.782" fill="#FFFFFF" width="4.021" height="8.355"/>
				<rect x="266.409" y="355.445" fill="#C58D2B" width="11.248" height="6.863"/>
			</g>
			<g>
				<rect x="262.256" y="354.218" fill="#FFFFFF" width="0.563" height="9.778"/>
				<rect x="262.252" y="363.604" fill="#FFFFFF" width="5.46" height="0.457"/>
				<rect x="262.25" y="353.812" fill="#FFFFFF" width="5.46" height="0.458"/>
			</g>
			<g>
				<rect x="281.092" y="354.246" fill="#FFFFFF" width="0.564" height="9.778"/>
				<rect x="276.2" y="363.633" fill="#FFFFFF" width="5.46" height="0.458"/>
				<rect x="276.202" y="353.841" fill="#FFFFFF" width="5.46" height="0.457"/>
			</g>
		</g>
	</g>
	<g>
		<g>
			<g>
				<rect x="268.635" y="246.504" fill="#FFFFFF" width="4.021" height="8.354"/>
				<rect x="255.999" y="246.497" fill="#FFFFFF" width="4.021" height="8.355"/>
				<rect x="258.714" y="247.16" width="11.248" height="6.863"/>
			</g>
			<g>
				<rect x="254.562" y="245.933" fill="#FFFFFF" width="0.563" height="9.778"/>
				<rect x="254.558" y="255.319" fill="#FFFFFF" width="5.46" height="0.457"/>
				<rect x="254.555" y="245.526" fill="#FFFFFF" width="5.46" height="0.458"/>
			</g>
			<g>
				<rect x="273.398" y="245.961" fill="#FFFFFF" width="0.564" height="9.778"/>
				<rect x="268.505" y="255.348" fill="#FFFFFF" width="5.46" height="0.458"/>
				<rect x="268.507" y="245.556" fill="#FFFFFF" width="5.46" height="0.457"/>
			</g>
		</g>
		<g>
			<g>
				<rect x="268.635" y="234.033" fill="#FFFFFF" width="4.021" height="8.354"/>
				<rect x="255.999" y="234.026" fill="#FFFFFF" width="4.021" height="8.355"/>
				<rect x="258.714" y="234.689" width="11.248" height="6.863"/>
			</g>
			<g>
				<rect x="254.562" y="233.462" fill="#FFFFFF" width="0.563" height="9.778"/>
				<rect x="254.558" y="242.849" fill="#FFFFFF" width="5.46" height="0.457"/>
				<rect x="254.555" y="233.056" fill="#FFFFFF" width="5.46" height="0.458"/>
			</g>
			<g>
				<rect x="273.398" y="233.49" fill="#FFFFFF" width="0.564" height="9.778"/>
				<rect x="268.505" y="242.877" fill="#FFFFFF" width="5.46" height="0.458"/>
				<rect x="268.507" y="233.085" fill="#FFFFFF" width="5.46" height="0.457"/>
			</g>
		</g>
	</g>
	<g>
		<g>
			<rect x="322.308" y="331.548" fill="#FFFFFF" width="4.021" height="8.354"/>
			<rect x="309.671" y="331.541" fill="#FFFFFF" width="4.021" height="8.355"/>
			<rect x="312.387" y="332.204" width="11.248" height="6.863"/>
		</g>
		<g>
			<rect x="308.235" y="330.977" fill="#FFFFFF" width="0.563" height="9.778"/>
			<rect x="308.231" y="340.363" fill="#FFFFFF" width="5.46" height="0.457"/>
			<rect x="308.228" y="330.57" fill="#FFFFFF" width="5.46" height="0.458"/>
		</g>
		<g>
			<rect x="327.071" y="331.005" fill="#FFFFFF" width="0.564" height="9.778"/>
			<rect x="322.178" y="340.392" fill="#FFFFFF" width="5.46" height="0.458"/>
			<rect x="322.18" y="330.6" fill="#FFFFFF" width="5.46" height="0.457"/>
		</g>
	</g>
	<g>
		<g>
			<rect x="344.807" y="331.548" fill="#FFFFFF" width="4.021" height="8.354"/>
			<rect x="332.17" y="331.541" fill="#FFFFFF" width="4.021" height="8.355"/>
			<rect x="334.886" y="332.204" width="11.248" height="6.863"/>
		</g>
		<g>
			<rect x="330.734" y="330.977" fill="#FFFFFF" width="0.563" height="9.778"/>
			<rect x="330.73" y="340.363" fill="#FFFFFF" width="5.46" height="0.457"/>
			<rect x="330.727" y="330.57" fill="#FFFFFF" width="5.46" height="0.458"/>
		</g>
		<g>
			<rect x="349.57" y="331.005" fill="#FFFFFF" width="0.564" height="9.778"/>
			<rect x="344.677" y="340.392" fill="#FFFFFF" width="5.46" height="0.458"/>
			<rect x="344.679" y="330.6" fill="#FFFFFF" width="5.46" height="0.457"/>
		</g>
	</g>
	<g>
		<rect x="313.593" y="200.48" fill="#FFFFFF" width="14.518" height="25.707"/>
		<rect x="336.296" y="200.48" fill="#FFFFFF" width="14.518" height="25.707"/>
		<rect x="324.678" y="258.73" fill="#FFFFFF" width="38.662" height="25.707"/>
		<rect x="360.341" y="200.48" fill="#FFFFFF" width="14.518" height="25.707"/>
		<g>
			<rect x="310.958" y="224.788" width="65.56" height="39.252"/>
			<rect x="313.891" y="228.414" fill="#262626" width="59.019" height="32.651"/>
		</g>
	</g>
	<g>
		<g>
			<rect x="254.269" y="200.208" fill="#FFFFFF" width="4.021" height="8.355"/>
			<rect x="266.904" y="200.214" fill="#FFFFFF" width="4.021" height="8.355"/>
			<rect x="256.962" y="201.044" fill="#C58D2B" width="11.248" height="6.863"/>
		</g>
		<g>
			<rect x="271.799" y="199.355" fill="#FFFFFF" width="0.563" height="9.779"/>
			<rect x="266.906" y="199.29" fill="#FFFFFF" width="5.46" height="0.458"/>
			<rect x="266.909" y="209.081" fill="#FFFFFF" width="5.46" height="0.459"/>
		</g>
		<g>
			<rect x="252.962" y="199.327" fill="#FFFFFF" width="0.564" height="9.778"/>
			<rect x="252.959" y="199.261" fill="#FFFFFF" width="5.46" height="0.458"/>
			<rect x="252.957" y="209.054" fill="#FFFFFF" width="5.46" height="0.457"/>
		</g>
	</g>
	<g>
		<g>
			<rect x="287.007" y="200.208" fill="#FFFFFF" width="4.021" height="8.355"/>
			<rect x="299.643" y="200.214" fill="#FFFFFF" width="4.021" height="8.355"/>
			<rect x="289.7" y="201.044" fill="#C58D2B" width="11.248" height="6.863"/>
		</g>
		<g>
			<rect x="304.537" y="199.355" fill="#FFFFFF" width="0.563" height="9.779"/>
			<rect x="299.645" y="199.29" fill="#FFFFFF" width="5.46" height="0.458"/>
			<rect x="299.647" y="209.081" fill="#FFFFFF" width="5.46" height="0.459"/>
		</g>
		<g>
			<rect x="285.7" y="199.327" fill="#FFFFFF" width="0.564" height="9.778"/>
			<rect x="285.697" y="199.261" fill="#FFFFFF" width="5.46" height="0.458"/>
			<rect x="285.695" y="209.054" fill="#FFFFFF" width="5.46" height="0.457"/>
		</g>
	</g>
	<g>
		<rect x="254.248" y="214.167" fill="#FFFFFF" width="48.13" height="14.247"/>
		<rect x="263.329" y="215.903" fill="#51B848" width="28.838" height="10.642"/>
	</g>
	<g>
		<rect x="178.49" y="344.558" fill="#FFFFFF" width="56.952" height="29.035"/>
		<g>
			<rect x="190.844" y="343.266" fill="#90918C" width="31.934" height="31.223"/>
			<rect x="186.511" y="344.558" fill="#90918C" width="40.453" height="4.809"/>
			<rect x="187.985" y="352.126" fill="#90918C" width="38.185" height="13.897"/>
			<rect x="186.511" y="368.784" fill="#90918C" width="40.453" height="4.809"/>
			<circle fill="#262626" cx="206.811" cy="359.131" r="11.201"/>
		</g>
	</g>
	<g>
		<rect x="178.49" y="199.015" fill="#FFFFFF" width="56.952" height="29.035"/>
		<g>
			<rect x="190.844" y="197.723" fill="#90918C" width="31.934" height="31.223"/>
			<rect x="186.511" y="199.015" fill="#90918C" width="40.453" height="4.809"/>
			<rect x="187.985" y="206.583" fill="#90918C" width="38.185" height="13.897"/>
			<rect x="186.511" y="223.241" fill="#90918C" width="40.453" height="4.809"/>
			<circle fill="#262626" cx="206.811" cy="213.588" r="11.201"/>
		</g>
	</g>
	<g>
		<path fill="#FFFFFF" d="M199.618,238.21h-3.504v-5.688h4.332l-0.828,0.924h-2.496v1.392h2.94l-0.84,0.936h-2.1v1.512h3.324
			L199.618,238.21z"/>
		<path fill="#FFFFFF" d="M204.441,238.21l-2.604-4.068v4.068h-0.96v-5.364l0.912-0.396l2.628,4.068v-3.672l0.96-0.42v5.784H204.441
			z"/>
	</g>
	<g>
		<path fill="#FFFFFF" d="M200.432,337.742l-0.78,0.805h-3.792v-5.688h3.792l0.78,0.804v1.536l-0.492,0.42l0.504,0.444
			L200.432,337.742z M199.423,333.782h-2.556v1.392h2.556V333.782z M199.423,336.11h-2.556v1.513h2.556V336.11z"/>
		<path fill="#FFFFFF" d="M205.099,338.547h-2.964l-0.816-0.793v-4.104l0.816-0.792h2.964l0.816,0.792v4.104L205.099,338.547z
			 M204.907,333.782h-2.58v3.841h2.58V333.782z"/>
		<path fill="#FFFFFF" d="M210.607,338.547h-2.964l-0.816-0.793v-4.104l0.816-0.792h2.964l0.816,0.792v4.104L210.607,338.547z
			 M210.416,333.782h-2.58v3.841h2.58V333.782z"/>
		<path fill="#FFFFFF" d="M215.839,333.782h-1.224v4.765h-1.008v-4.765h-2.04l0.888-0.924h4.272L215.839,333.782z"/>
	</g>
	<g>
		<g>
			<path fill="#FFFFFF" d="M182.534,189.5v-2.412h-2.532v2.412h-1.008v-5.688h3.768l0.78,0.744v1.536l-0.54,0.492l0.54,0.528v2.388
				H182.534z M182.534,184.736h-2.532v1.416h2.532V184.736z"/>
			<path fill="#FFFFFF" d="M188.006,189.5v-2.052h-2.508v2.052h-1.02v-4.908l0.852-0.78h2.832l0.852,0.78v4.908H188.006z
				 M188.006,184.736h-2.508v1.788h2.508V184.736z"/>
			<path fill="#FFFFFF" d="M196.274,189.5h-2.256l-0.492-0.468l-0.492,0.468h-2.292l-0.768-0.804v-4.56l0.996-0.42v4.86h2.052
				v-4.392h1.008v4.392h2.052v-4.86l1.008,0.42v4.584L196.274,189.5z"/>
		</g>
		<g>
			<path fill="#FFFFFF" d="M210.079,189.5v-4.368h-1.32l1.296-1.32h1.032v5.688H210.079z"/>
			<path fill="#FFFFFF" d="M215.311,189.5v-4.368h-1.32l1.296-1.32h1.032v5.688H215.311z"/>
		</g>
		<g>
			<path fill="#FFFFFF" d="M236.196,189.5v-4.368h-1.32l1.296-1.32h1.032v5.688H236.196z"/>
			<path fill="#FFFFFF" d="M239.508,189.5v-5.7h4.272v5.7H239.508z M242.772,184.676h-2.244v3.948h2.244V184.676z"/>
		</g>
		<g>
			<path fill="#FFFFFF" d="M261.918,189.5l0.588-0.876h2.796v-1.296h-3.264V183.8h4.272v5.7H261.918z M265.302,184.676h-2.244v1.776
				h2.244V184.676z"/>
		</g>
		<g>
			<path fill="#FFFFFF" d="M287.937,189.5v-4.368h-1.32l1.296-1.32h1.032v5.688H287.937z"/>
			<path fill="#FFFFFF" d="M291.249,189.5v-1.74h1.02v0.864h2.244v-1.548h-1.524V186.2h1.524v-1.524h-2.244v0.732h-1.02v-1.596
				l4.272-0.012v2.381l-0.48,0.457l0.48,0.457v2.405H291.249z"/>
		</g>
		<g>
			<path fill="#FFFFFF" d="M313.812,184.736h-2.676v3.828h2.496v-1.452h-1.968l0.888-0.924h2.088l-0.012,2.496l-0.804,0.816h-2.832
				l-0.864-0.804v-4.08l0.912-0.792l3.72-0.012L313.812,184.736z"/>
			<path fill="#FFFFFF" d="M319.103,189.5l-2.604-4.068v4.068h-0.96v-5.364l0.912-0.396l2.628,4.068v-3.672l0.96-0.42v5.784H319.103
				z"/>
			<path fill="#FFFFFF" d="M324.731,189.5h-3.684v-5.688l3.684,0.012l0.864,0.78v4.104L324.731,189.5z M324.587,184.736h-2.532v3.84
				h2.532V184.736z"/>
		</g>
		<g>
			<path fill="#FFFFFF" d="M340.179,189.5v-4.368h-1.32l1.296-1.32h1.032v5.688H340.179z"/>
			<path fill="#FFFFFF" d="M347.283,189.5h-3.792v-1.692l3.264-1.992v-1.14h-2.244v0.852h-1.02v-1.716l4.272-0.012v2.388
				l-3.252,2.016v0.42h3.372L347.283,189.5z"/>
		</g>
		<g>
			<path fill="#FFFFFF" d="M367.065,189.5v-4.368h-1.32l1.296-1.32h1.032v5.688H367.065z"/>
			<path fill="#FFFFFF" d="M374.733,188.348h-0.576v1.152h-1.02v-1.152h-3.108v-0.888l3.072-3.648h1.056v3.66h0.984L374.733,188.348
				z M373.137,184.88l-2.172,2.592h2.172V184.88z"/>
		</g>
		<g>
			<path fill="#FFFFFF" d="M395.488,189.5h-3.792v-1.692l3.264-1.992v-1.14h-2.244v0.852h-1.02v-1.716l4.272-0.012v2.388
				l-3.252,2.016v0.42h3.372L395.488,189.5z"/>
			<path fill="#FFFFFF" d="M399.028,189.5h-1.008l2.124-4.824h-3.396l0.588-0.876h3.828v0.842L399.028,189.5z"/>
		</g>
	</g>
	<g>
		<g>
			<path fill="#FFFFFF" d="M187.398,384.248h-2.724v1.32h3.252v3.504h-4.272v-5.699h4.332L187.398,384.248z M186.918,386.445h-2.244
				v1.752h2.244V386.445z"/>
		</g>
		<g>
			<path fill="#FFFFFF" d="M212.942,389.072h-1.008l2.124-4.824h-3.396l0.588-0.875h3.828v0.842L212.942,389.072z"/>
		</g>
		<g>
			<path fill="#FFFFFF" d="M236.96,389.072v-2.284l0.612-0.589l-0.612-0.566v-2.26h4.272v2.26l-0.6,0.578l0.6,0.577v2.284H236.96z
				 M240.224,384.248h-2.244v1.525h2.244V384.248z M240.224,386.648h-2.244v1.549h2.244V386.648z"/>
		</g>
		<g>
			<path fill="#FFFFFF" d="M261.642,389.072v-4.367h-1.32l1.296-1.32h1.032v5.688H261.642z"/>
			<path fill="#FFFFFF" d="M268.698,384.248h-2.724v1.32h3.252v3.504h-4.272v-1.655h1.02v0.78h2.244v-1.752h-3.264v-3.072h4.332
				L268.698,384.248z"/>
		</g>
		<g>
			<path fill="#FFFFFF" d="M292.492,389.072H288.7v-1.691l3.264-1.992v-1.141h-2.244v0.853h-1.02v-1.716l4.272-0.012v2.388
				l-3.252,2.017v0.42h3.372L292.492,389.072z"/>
		</g>
		<g>
			<path fill="#FFFFFF" d="M315.835,389.072v-5.699h4.272v5.699H315.835z M319.099,384.248h-2.244v3.949h2.244V384.248z"/>
		</g>
		<g>
			<path fill="#FFFFFF" d="M345.298,387.921h-0.576v1.151h-1.02v-1.151h-3.108v-0.888l3.072-3.648h1.056v3.66h0.984L345.298,387.921
				z M343.703,384.453l-2.172,2.592h2.172V384.453z"/>
		</g>
		<g>
			<path fill="#FFFFFF" d="M365.749,389.072v-4.367h-1.32l1.296-1.32h1.032v5.688H365.749z"/>
			<path fill="#FFFFFF" d="M372.805,384.248h-2.724v1.32h3.252v3.504h-4.272v-5.699h4.332L372.805,384.248z M372.325,386.445h-2.244
				v1.752h2.244V386.445z"/>
		</g>
		<g>
			<path fill="#FFFFFF" d="M393.299,389.072v-4.367h-1.32l1.296-1.32h1.032v5.688H393.299z"/>
			<path fill="#FFFFFF" d="M398.711,389.072h-1.008l2.124-4.824h-3.396l0.588-0.875h3.828v0.842L398.711,389.072z"/>
		</g>
	</g>
</g>
<polygon opacity="0.1" fill="#FFFFFF" points="421.983,368.312 600.869,204.877 600.869,368.312 "/>
<g>
	<polygon fill="#FFFFFF" points="466.73,285.855 470.995,296.602 473.542,298.532 469.276,287.766 	"/>
	<polygon fill="#FFFFFF" points="470.995,296.603 473.542,298.532 460.425,303.742 457.917,301.813 	"/>
	<polygon fill="#FFFFFF" points="480.048,293 476.256,294.509 478.796,296.438 482.614,294.955 	"/>
	<g>
		<defs>
			<path id="SVGID_1_" d="M478.539,284.523c0,0-2.216-4.631-6.181-6.823c1.563,2.188,2.493,2.535,4.201,6.777
				c1.814,4.512,3.488,8.522,3.488,8.522l2.566,1.955L478.539,284.523z"/>
		</defs>
		<use xlink:href="#SVGID_1_"  overflow="visible" fill="#FFFFFF"/>
		<clipPath id="SVGID_2_">
			<use xlink:href="#SVGID_1_"  overflow="visible"/>
		</clipPath>
		
			<rect x="467.662" y="278.678" transform="matrix(0.3243 -0.946 0.946 0.3243 51.7968 645.1652)" clip-path="url(#SVGID_2_)" fill="#FFFFFF" width="19.648" height="15.299"/>
	</g>
	<g>
		<defs>
			<path id="SVGID_3_" d="M461.37,282.837c-5.113,2.411-3.854,6.792-3.854,6.792l2.173,6.175l1.863-0.767
				c0,0-0.475-1.644-1.388-4.092c-0.22-4.565,5.479-6.319,7.561-7.086c2.083-0.767,4.527-0.215,4.527-0.215
				C471.227,280.069,466.484,280.426,461.37,282.837"/>
		</defs>
		<use xlink:href="#SVGID_3_"  overflow="visible" fill="#FFFFFF"/>
		<clipPath id="SVGID_4_">
			<use xlink:href="#SVGID_3_"  overflow="visible"/>
		</clipPath>
		
			<rect x="454.217" y="277.819" transform="matrix(0.3243 -0.9459 0.9459 0.3243 41.3135 633.7119)" clip-path="url(#SVGID_4_)" fill="#FFFFFF" width="20.075" height="20.235"/>
	</g>
	<g>
		<defs>
			<path id="SVGID_5_" d="M475.774,282.255c0,0-1.906-4.223-5.064-5.582c-3.157-1.359-6.425-0.716-11.576,1.335
				c-5.287,2.398-7.919,7.354-5.495,13.06c1.933,4.551,4.278,10.744,4.278,10.744l13.078-5.208l-4.263-10.748l-3.853,1.535
				l2.422,6.078l-5.292,2.107l-2.421-6.08c0,0-1.376-3.912,3.597-6.363c4.974-2.449,8.952-2.809,10.793,0.634
				c1.435,3.603,4.277,10.743,4.277,10.743l3.798-1.514L475.774,282.255z"/>
		</defs>
		<use xlink:href="#SVGID_5_"  overflow="visible" fill="#FFFFFF"/>
		<clipPath id="SVGID_6_">
			<use xlink:href="#SVGID_5_"  overflow="visible"/>
		</clipPath>
		
			<rect x="447.337" y="270.92" transform="matrix(0.9291 -0.3699 0.3699 0.9291 -73.7131 192.7061)" clip-path="url(#SVGID_6_)" fill="#FFFFFF" width="36.593" height="35.286"/>
	</g>
</g>
</svg>
