<?xml version="1.0" encoding="utf-8"?>
<!-- Generator: Adobe Illustrator 16.0.0, SVG Export Plug-In . SVG Version: 6.00 Build 0)  -->
<!DOCTYPE svg PUBLIC "-//W3C//DTD SVG 1.1//EN" "http://www.w3.org/Graphics/SVG/1.1/DTD/svg11.dtd">
<svg version="1.1" id="Layer_1" xmlns="http://www.w3.org/2000/svg" xmlns:xlink="http://www.w3.org/1999/xlink" x="0px" y="0px"
	 width="2834.65px" height="2834.65px" viewBox="0 0 2834.65 2834.65" enable-background="new 0 0 2834.65 2834.65"
	 xml:space="preserve">
<g>
	<path fill="#FFFFFF" stroke="#000000" stroke-width="6" stroke-miterlimit="10" d="M2058.555,63.84
		c34.049,0,61.658,28.117,61.658,62.805v2509.89c0,34.696-27.609,62.814-61.658,62.814H787.108
		c-34.048,0-61.657-28.118-61.657-62.814V126.645c0-34.688,27.609-62.805,61.657-62.805H2058.555z"/>
	<g>
		
			<rect x="1202.517" y="2571.826" fill="#FFFFFF" stroke="#000000" stroke-width="6" stroke-miterlimit="10" width="439.262" height="100.785"/>
		
			<rect x="1529.621" y="2431.662" fill="#FFFFFF" stroke="#000000" stroke-width="6" stroke-miterlimit="10" width="49.223" height="75.103"/>
		
			<rect x="1276.72" y="2432.522" fill="#FFFFFF" stroke="#000000" stroke-width="6" stroke-miterlimit="10" width="46.854" height="76.85"/>
		
			<rect x="1338.155" y="2420.107" fill="#FFFFFF" stroke="#000000" stroke-width="6" stroke-miterlimit="10" width="20.337" height="76.866"/>
		
			<rect x="1377.385" y="2420.107" fill="#FFFFFF" stroke="#000000" stroke-width="6" stroke-miterlimit="10" width="20.337" height="76.866"/>
		
			<rect x="1410.489" y="2420.107" fill="#FFFFFF" stroke="#000000" stroke-width="6" stroke-miterlimit="10" width="20.337" height="76.866"/>
		
			<rect x="1444.611" y="2420.107" fill="#FFFFFF" stroke="#000000" stroke-width="6" stroke-miterlimit="10" width="20.338" height="76.866"/>
		
			<rect x="1476.588" y="2420.107" fill="#FFFFFF" stroke="#000000" stroke-width="6" stroke-miterlimit="10" width="20.336" height="76.866"/>
		<polygon fill="#FFFFFF" stroke="#000000" stroke-width="6" stroke-miterlimit="10" points="1618.259,2445.651 1223.39,2445.651 
			1223.39,2743.548 1210.326,2760.536 1219.208,2769.99 1234.882,2750.477 1607.434,2750.477 1618.684,2771.768 1630.435,2761.682 
			1618.073,2742.483 		"/>
		
			<rect x="1255.107" y="2445.189" fill="#FFFFFF" stroke="#000000" stroke-width="6" stroke-miterlimit="10" width="336.08" height="329.493"/>
		
			<rect x="1281.55" y="2613.774" fill="#FFFFFF" stroke="#000000" stroke-width="6" stroke-miterlimit="10" width="24.722" height="82.967"/>
		
			<rect x="1540.021" y="2616.385" fill="#FFFFFF" stroke="#000000" stroke-width="6" stroke-miterlimit="10" width="24.703" height="82.965"/>
		
			<rect x="1445.204" y="2445.791" fill="#FFFFFF" stroke="#000000" stroke-width="6" stroke-miterlimit="10" width="91.302" height="39.572"/>
		
			<rect x="1256.958" y="2765.457" fill="#FFFFFF" stroke="#000000" stroke-width="6" stroke-miterlimit="10" width="333.452" height="8.503"/>
		
			<rect x="1302.664" y="2446.059" fill="#FFFFFF" stroke="#000000" stroke-width="6" stroke-miterlimit="10" width="91.32" height="39.573"/>
	</g>
	<rect x="939.16" y="69.309" stroke="#000000" stroke-width="6" stroke-miterlimit="10" width="964.883" height="1390.69"/>
	
		<rect x="943.213" y="68.606" fill="#FFFFFF" stroke="#000000" stroke-width="6" stroke-miterlimit="10" width="955.427" height="1385.674"/>
	
		<rect x="967.972" y="68.606" fill="#FFFFFF" stroke="#000000" stroke-width="6" stroke-miterlimit="10" width="905.482" height="1344.725"/>
	
		<rect x="995.876" y="454.416" fill="#FFFFFF" stroke="#000000" stroke-width="6" stroke-miterlimit="10" width="850.562" height="930.954"/>
	
		<rect x="1024.8" y="482.645" fill="#FFFFFF" stroke="#000000" stroke-width="6" stroke-miterlimit="10" width="794.659" height="878.503"/>
	<path fill="#FFFFFF" stroke="#000000" stroke-width="6" stroke-miterlimit="10" d="M1066.083,1279.82
		c0-12.574,10.066-22.751,22.501-22.751c12.417,0,22.501,10.177,22.501,22.751c0,12.564-10.085,22.742-22.501,22.742
		C1076.149,1302.562,1066.083,1292.384,1066.083,1279.82z"/>
	<g>
		<g>
			<g>
				
					<rect x="1727.86" y="1401.747" fill="#FFFFFF" stroke="#000000" stroke-width="6" stroke-miterlimit="10" width="48.594" height="90.107"/>
				
					<rect x="1727.86" y="1401.747" fill="#FFFFFF" stroke="#000000" stroke-width="6" stroke-miterlimit="10" width="48.594" height="7.531"/>
			</g>
			<g>
				
					<rect x="1222.465" y="1401.747" fill="#FFFFFF" stroke="#000000" stroke-width="6" stroke-miterlimit="10" width="48.612" height="90.107"/>
				
					<rect x="1222.465" y="1401.747" fill="#FFFFFF" stroke="#000000" stroke-width="6" stroke-miterlimit="10" width="48.612" height="7.531"/>
			</g>
			<g>
				
					<rect x="1152.277" y="1401.321" fill="#FFFFFF" stroke="#000000" stroke-width="6" stroke-miterlimit="10" width="48.593" height="90.089"/>
				
					<rect x="1152.277" y="1401.321" fill="#FFFFFF" stroke="#000000" stroke-width="6" stroke-miterlimit="10" width="48.593" height="7.494"/>
			</g>
			<g>
				
					<rect x="1366.485" y="1401.747" fill="#FFFFFF" stroke="#000000" stroke-width="6" stroke-miterlimit="10" width="48.612" height="90.107"/>
				
					<rect x="1366.485" y="1401.747" fill="#FFFFFF" stroke="#000000" stroke-width="6" stroke-miterlimit="10" width="48.612" height="7.531"/>
			</g>
			<g>
				
					<rect x="1294.485" y="1401.747" fill="#FFFFFF" stroke="#000000" stroke-width="6" stroke-miterlimit="10" width="48.593" height="90.107"/>
				
					<rect x="1294.485" y="1401.747" fill="#FFFFFF" stroke="#000000" stroke-width="6" stroke-miterlimit="10" width="48.593" height="7.531"/>
			</g>
			<g>
				
					<rect x="1438.931" y="1402.219" fill="#FFFFFF" stroke="#000000" stroke-width="6" stroke-miterlimit="10" width="48.593" height="90.079"/>
				
					<rect x="1438.931" y="1402.219" fill="#FFFFFF" stroke="#000000" stroke-width="6" stroke-miterlimit="10" width="48.593" height="7.512"/>
			</g>
			<g>
				
					<rect x="1511.839" y="1401.747" fill="#FFFFFF" stroke="#000000" stroke-width="6" stroke-miterlimit="10" width="48.593" height="90.107"/>
				
					<rect x="1511.839" y="1401.747" fill="#FFFFFF" stroke="#000000" stroke-width="6" stroke-miterlimit="10" width="48.593" height="7.531"/>
			</g>
			<g>
				
					<rect x="1583.84" y="1400.858" fill="#FFFFFF" stroke="#000000" stroke-width="6" stroke-miterlimit="10" width="48.611" height="90.099"/>
				
					<rect x="1583.84" y="1400.858" fill="#FFFFFF" stroke="#000000" stroke-width="6" stroke-miterlimit="10" width="48.611" height="7.484"/>
			</g>
			<g>
				
					<rect x="1655.397" y="1400.858" fill="#FFFFFF" stroke="#000000" stroke-width="6" stroke-miterlimit="10" width="48.593" height="90.099"/>
				
					<rect x="1655.397" y="1400.858" fill="#FFFFFF" stroke="#000000" stroke-width="6" stroke-miterlimit="10" width="48.593" height="7.484"/>
			</g>
			<g>
				
					<rect x="1083.866" y="1401.747" fill="#FFFFFF" stroke="#000000" stroke-width="6" stroke-miterlimit="10" width="48.593" height="90.107"/>
				
					<rect x="1083.866" y="1401.747" fill="#FFFFFF" stroke="#000000" stroke-width="6" stroke-miterlimit="10" width="48.593" height="7.531"/>
			</g>
		</g>
		<g>
			<g>
				
					<rect x="893.158" y="1335.408" fill="#FFFFFF" stroke="#000000" stroke-width="6" stroke-miterlimit="10" width="89.099" height="49.166"/>
				
					<rect x="974.837" y="1335.408" fill="#FFFFFF" stroke="#000000" stroke-width="6" stroke-miterlimit="10" width="7.42" height="49.166"/>
			</g>
			<g>
				
					<rect x="892.584" y="850.256" fill="#FFFFFF" stroke="#000000" stroke-width="6" stroke-miterlimit="10" width="89.136" height="49.167"/>
				
					<rect x="974.264" y="850.256" fill="#FFFFFF" stroke="#000000" stroke-width="6" stroke-miterlimit="10" width="7.457" height="49.167"/>
			</g>
			<g>
				
					<rect x="893.139" y="782.122" fill="#FFFFFF" stroke="#000000" stroke-width="6" stroke-miterlimit="10" width="89.118" height="49.139"/>
				
					<rect x="974.837" y="782.122" fill="#FFFFFF" stroke="#000000" stroke-width="6" stroke-miterlimit="10" width="7.42" height="49.139"/>
			</g>
			<g>
				
					<rect x="892.492" y="986.449" fill="#FFFFFF" stroke="#000000" stroke-width="6" stroke-miterlimit="10" width="89.099" height="49.13"/>
				
					<rect x="974.171" y="986.449" fill="#FFFFFF" stroke="#000000" stroke-width="6" stroke-miterlimit="10" width="7.42" height="49.13"/>
			</g>
			<g>
				
					<rect x="892.696" y="918.408" fill="#FFFFFF" stroke="#000000" stroke-width="6" stroke-miterlimit="10" width="89.117" height="49.148"/>
				
					<rect x="974.375" y="918.408" fill="#FFFFFF" stroke="#000000" stroke-width="6" stroke-miterlimit="10" width="7.438" height="49.148"/>
			</g>
			<g>
				
					<rect x="892.714" y="1055.128" fill="#FFFFFF" stroke="#000000" stroke-width="6" stroke-miterlimit="10" width="89.099" height="49.129"/>
				
					<rect x="974.393" y="1055.128" fill="#FFFFFF" stroke="#000000" stroke-width="6" stroke-miterlimit="10" width="7.42" height="49.129"/>
			</g>
			<g>
				
					<rect x="892.936" y="1125.779" fill="#FFFFFF" stroke="#000000" stroke-width="6" stroke-miterlimit="10" width="89.118" height="49.148"/>
				
					<rect x="974.615" y="1125.779" fill="#FFFFFF" stroke="#000000" stroke-width="6" stroke-miterlimit="10" width="7.438" height="49.148"/>
			</g>
			<g>
				
					<rect x="892.696" y="1194.708" fill="#FFFFFF" stroke="#000000" stroke-width="6" stroke-miterlimit="10" width="89.117" height="49.148"/>
				
					<rect x="974.375" y="1194.708" fill="#FFFFFF" stroke="#000000" stroke-width="6" stroke-miterlimit="10" width="7.438" height="49.148"/>
			</g>
			<g>
				
					<rect x="893.473" y="1266.839" fill="#FFFFFF" stroke="#000000" stroke-width="6" stroke-miterlimit="10" width="89.118" height="49.167"/>
				
					<rect x="975.17" y="1266.839" fill="#FFFFFF" stroke="#000000" stroke-width="6" stroke-miterlimit="10" width="7.42" height="49.167"/>
			</g>
			<g>
				
					<rect x="893.158" y="714.1" fill="#FFFFFF" stroke="#000000" stroke-width="6" stroke-miterlimit="10" width="89.099" height="49.129"/>
				
					<rect x="974.837" y="714.1" fill="#FFFFFF" stroke="#000000" stroke-width="6" stroke-miterlimit="10" width="7.42" height="49.129"/>
			</g>
			<g>
				
					<rect x="892.936" y="580.451" fill="#FFFFFF" stroke="#000000" stroke-width="6" stroke-miterlimit="10" width="89.118" height="49.147"/>
				
					<rect x="974.615" y="580.451" fill="#FFFFFF" stroke="#000000" stroke-width="6" stroke-miterlimit="10" width="7.438" height="49.147"/>
			</g>
			<g>
				
					<rect x="893.029" y="513.87" fill="#FFFFFF" stroke="#000000" stroke-width="6" stroke-miterlimit="10" width="89.136" height="49.167"/>
				
					<rect x="974.726" y="513.87" fill="#FFFFFF" stroke="#000000" stroke-width="6" stroke-miterlimit="10" width="7.438" height="49.167"/>
			</g>
			<g>
				
					<rect x="893.158" y="647.417" fill="#FFFFFF" stroke="#000000" stroke-width="6" stroke-miterlimit="10" width="89.099" height="49.148"/>
				
					<rect x="974.837" y="647.417" fill="#FFFFFF" stroke="#000000" stroke-width="6" stroke-miterlimit="10" width="7.42" height="49.148"/>
			</g>
			<g>
				
					<rect x="892.936" y="448.124" fill="#FFFFFF" stroke="#000000" stroke-width="6" stroke-miterlimit="10" width="89.118" height="49.167"/>
				
					<rect x="974.615" y="448.124" fill="#FFFFFF" stroke="#000000" stroke-width="6" stroke-miterlimit="10" width="7.438" height="49.167"/>
			</g>
		</g>
		<g>
			<g>
				
					<rect x="1859.521" y="1339.959" fill="#FFFFFF" stroke="#000000" stroke-width="6" stroke-miterlimit="10" width="89.081" height="49.167"/>
				
					<rect x="1859.521" y="1339.959" fill="#FFFFFF" stroke="#000000" stroke-width="6" stroke-miterlimit="10" width="7.421" height="49.167"/>
			</g>
			<g>
				
					<rect x="1860.057" y="854.809" fill="#FFFFFF" stroke="#000000" stroke-width="6" stroke-miterlimit="10" width="89.117" height="49.146"/>
				
					<rect x="1860.057" y="854.809" fill="#FFFFFF" stroke="#000000" stroke-width="6" stroke-miterlimit="10" width="7.439" height="49.146"/>
			</g>
			<g>
				
					<rect x="1859.521" y="786.674" fill="#FFFFFF" stroke="#000000" stroke-width="6" stroke-miterlimit="10" width="89.099" height="49.148"/>
				
					<rect x="1859.521" y="786.674" fill="#FFFFFF" stroke="#000000" stroke-width="6" stroke-miterlimit="10" width="7.421" height="49.148"/>
			</g>
			<g>
				
					<rect x="1860.168" y="991.001" fill="#FFFFFF" stroke="#000000" stroke-width="6" stroke-miterlimit="10" width="89.1" height="49.148"/>
				
					<rect x="1860.168" y="991.001" fill="#FFFFFF" stroke="#000000" stroke-width="6" stroke-miterlimit="10" width="7.439" height="49.148"/>
			</g>
			<g>
				
					<rect x="1859.965" y="922.941" fill="#FFFFFF" stroke="#000000" stroke-width="6" stroke-miterlimit="10" width="89.1" height="49.148"/>
				
					<rect x="1859.965" y="922.941" fill="#FFFFFF" stroke="#000000" stroke-width="6" stroke-miterlimit="10" width="7.438" height="49.148"/>
			</g>
			<g>
				
					<rect x="1859.946" y="1059.681" fill="#FFFFFF" stroke="#000000" stroke-width="6" stroke-miterlimit="10" width="89.099" height="49.148"/>
				
					<rect x="1859.946" y="1059.681" fill="#FFFFFF" stroke="#000000" stroke-width="6" stroke-miterlimit="10" width="7.457" height="49.148"/>
			</g>
			<g>
				
					<rect x="1859.725" y="1130.332" fill="#FFFFFF" stroke="#000000" stroke-width="6" stroke-miterlimit="10" width="89.099" height="49.147"/>
				
					<rect x="1859.725" y="1130.332" fill="#FFFFFF" stroke="#000000" stroke-width="6" stroke-miterlimit="10" width="7.438" height="49.147"/>
			</g>
			<g>
				
					<rect x="1859.965" y="1199.27" fill="#FFFFFF" stroke="#000000" stroke-width="6" stroke-miterlimit="10" width="89.1" height="49.139"/>
				
					<rect x="1859.965" y="1199.27" fill="#FFFFFF" stroke="#000000" stroke-width="6" stroke-miterlimit="10" width="7.438" height="49.139"/>
			</g>
			<g>
				
					<rect x="1859.168" y="1271.392" fill="#FFFFFF" stroke="#000000" stroke-width="6" stroke-miterlimit="10" width="89.119" height="49.148"/>
				
					<rect x="1859.168" y="1271.392" fill="#FFFFFF" stroke="#000000" stroke-width="6" stroke-miterlimit="10" width="7.421" height="49.148"/>
			</g>
			<g>
				
					<rect x="1859.521" y="718.651" fill="#FFFFFF" stroke="#000000" stroke-width="6" stroke-miterlimit="10" width="89.081" height="49.148"/>
				
					<rect x="1859.521" y="718.651" fill="#FFFFFF" stroke="#000000" stroke-width="6" stroke-miterlimit="10" width="7.421" height="49.148"/>
			</g>
			<g>
				
					<rect x="1859.725" y="585.002" fill="#FFFFFF" stroke="#000000" stroke-width="6" stroke-miterlimit="10" width="89.099" height="49.13"/>
				
					<rect x="1859.725" y="585.002" fill="#FFFFFF" stroke="#000000" stroke-width="6" stroke-miterlimit="10" width="7.438" height="49.13"/>
			</g>
			<g>
				
					<rect x="1859.612" y="518.423" fill="#FFFFFF" stroke="#000000" stroke-width="6" stroke-miterlimit="10" width="89.138" height="49.148"/>
				
					<rect x="1859.612" y="518.423" fill="#FFFFFF" stroke="#000000" stroke-width="6" stroke-miterlimit="10" width="7.438" height="49.148"/>
			</g>
			<g>
				
					<rect x="1859.521" y="651.97" fill="#FFFFFF" stroke="#000000" stroke-width="6" stroke-miterlimit="10" width="89.081" height="49.148"/>
				
					<rect x="1859.521" y="651.97" fill="#FFFFFF" stroke="#000000" stroke-width="6" stroke-miterlimit="10" width="7.421" height="49.148"/>
			</g>
			<g>
				
					<rect x="1859.725" y="452.677" fill="#FFFFFF" stroke="#000000" stroke-width="6" stroke-miterlimit="10" width="89.099" height="49.148"/>
				
					<rect x="1859.725" y="452.677" fill="#FFFFFF" stroke="#000000" stroke-width="6" stroke-miterlimit="10" width="7.438" height="49.148"/>
			</g>
		</g>
	</g>
	<g>
		<g>
			<path stroke="#000000" stroke-width="6" stroke-miterlimit="10" d="M1312.471,923.997h-23.723c-4.497,0-7.605-0.758-9.289-2.258
				c-1.703-1.517-2.554-4.589-2.554-9.243v-63.813c0-4.764,0.851-8.114,2.554-10.057c1.684-1.953,4.848-2.924,9.475-2.924h22.964
				c8.568,0,12.842,2.711,12.842,8.096c0,5.412-4.274,8.096-12.842,8.096h-18.246v19.393h15.84c8.679,0,13.008,2.747,13.008,8.271
				c0,5.274-4.33,7.901-13.008,7.901h-15.84v20.328h18.82c8.548,0,12.842,2.767,12.842,8.291
				C1325.313,921.35,1321.02,923.997,1312.471,923.997z"/>
			<path stroke="#000000" stroke-width="6" stroke-miterlimit="10" d="M1382.641,919.093c-6.2,4.764-13.972,7.162-23.261,7.162
				c-6.088,0-11.546-0.815-16.376-2.453c-7.346-2.258-11.01-5.773-11.01-10.547c0-5.265,2.868-7.912,8.568-7.912
				c1.999,0,5.404,0.833,10.251,2.443c4.959,1.499,8.808,2.258,11.547,2.258c3.09,0,5.792-1.027,8.087-3.091
				c2.294-2.082,3.441-4.672,3.441-7.817c0-4.127-1.851-7.337-5.589-9.595c-2.091-1.249-5.828-2.767-11.158-4.533
				c-7.828-2.378-13.416-4.997-16.747-7.901c-4.848-3.886-7.272-9.336-7.272-16.358c0-8.41,3.109-15.201,9.308-20.337
				c5.829-4.783,13.046-7.16,21.595-7.16c4.959,0,9.623,0.758,13.972,2.256c5.828,2.258,8.752,5.524,8.752,9.79
				c0,4.764-2.554,7.16-7.643,7.16c-1.479,0-4.089-0.49-7.827-1.498c-3.701-1.008-6.384-1.518-7.994-1.518
				c-7.699,0-11.529,3.073-11.529,9.225c0,3.637,2.295,6.477,6.884,8.485c0.98,0.5,2.313,1.026,3.979,1.592
				c1.703,0.564,3.757,1.285,6.255,2.155c15.766,5.274,23.63,14.055,23.63,26.37
				C1392.503,906.297,1389.228,913.569,1382.641,919.093z"/>
			<path stroke="#000000" stroke-width="6" stroke-miterlimit="10" d="M1456.955,886.968c-5.2,5.219-12.473,7.846-21.873,7.846
				h-15.192v17.117c0,8.66-2.813,12.999-8.382,12.999c-5.589,0-8.402-4.339-8.402-13.018v-63.388c0-4.764,0.888-8.133,2.61-10.075
				c1.758-1.971,4.978-2.943,9.696-2.943h18.43c9.309,0,16.747,2.471,22.336,7.375c5.717,5.292,8.567,12.648,8.567,22.085
				C1464.745,874.422,1462.154,881.76,1456.955,886.968z M1430.456,851.699h-10.566v26.924h10.566
				c10.325,0,15.488-4.59,15.488-13.73C1445.944,856.094,1440.781,851.699,1430.456,851.699z"/>
			<path stroke="#000000" stroke-width="6" stroke-miterlimit="10" d="M1523.034,918.898c-5.736,5.024-12.935,7.531-21.613,7.531
				c-7.198,0-13.527-2.137-18.985-6.402c-6.958-5.524-10.418-11.224-10.418-17.117c0-5.533,2.461-8.29,7.42-8.29
				c2.757,0,5.348,1.692,7.827,5.08c1.37,1.999,2.554,3.618,3.535,4.802c0.999,1.203,1.739,2.045,2.238,2.526
				c2.498,2.146,5.403,3.211,8.753,3.211c3.479,0,6.365-1.277,8.66-3.85c2.295-2.59,3.441-5.682,3.441-9.317
				c0-4.145-1.369-7.161-4.09-9.03c-2.109-1.518-5.348-2.647-9.678-3.405c-4.978-0.758-7.457-3.248-7.457-7.531
				c0-4.007,2.425-6.579,7.254-7.708c7.087-1.628,10.622-5.264,10.622-10.927c0-6.134-2.979-9.205-8.938-9.205
				c-3.091,0-6.384,1.693-9.863,5.08c-4.349,4.256-7.771,6.402-10.233,6.402c-1.98,0-3.646-0.722-4.94-2.165
				c-1.314-1.434-1.943-3.165-1.943-5.191c0-5.644,3.275-10.528,9.863-14.674c5.829-3.637,11.639-5.467,17.487-5.467
				c3.479,0,6.771,0.564,9.862,1.711c3.108,1.129,5.811,2.693,8.105,4.69c2.294,2.008,4.089,4.459,5.402,7.356
				c1.296,2.877,1.962,6.087,1.962,9.594c0,6.772-3.793,13.036-11.361,18.81c10.547,5.783,15.821,13.491,15.821,23.159
				C1531.769,906.991,1528.845,913.764,1523.034,918.898z"/>
			<path stroke="#000000" stroke-width="6" stroke-miterlimit="10" d="M1587.8,923.997h-35.917c-7.088,0-10.621-2.647-10.621-7.92
				c0-2.508,2.184-6.264,6.514-11.279c1.239-1.388,2.608-2.924,4.107-4.636c1.48-1.692,3.201-3.598,5.218-5.737
				c15.248-17.431,22.891-28.997,22.891-34.63c0-6.894-3.108-10.354-9.308-10.354c-4.979,0-8.679,3.526-11.177,10.548
				c-1.37,3.774-2.351,6.087-2.979,6.958c-1.239,1.638-3.035,2.451-5.403,2.451c-5.588,0-8.364-3.007-8.364-9.04
				c0-5.532,1.98-10.843,5.94-15.997c5.958-7.41,13.526-11.111,22.724-11.111c3.849,0,7.438,0.601,10.788,1.794
				c3.368,1.184,6.198,2.896,8.567,5.098c2.368,2.175,4.219,4.839,5.588,7.995c1.37,3.136,2.055,6.633,2.055,10.528
				c0,6.653-2.794,13.814-8.383,21.457c-4.349,6.032-12.527,15.256-24.574,27.664h22.335c8.567,0,12.861,2.767,12.861,8.291
				C1600.661,921.35,1596.367,923.997,1587.8,923.997z"/>
		</g>
	</g>
	<g>
		
			<rect x="1828.655" y="1667.277" fill="#FFFFFF" stroke="#000000" stroke-width="6" stroke-miterlimit="10" width="68.188" height="39.646"/>
		
			<rect x="1727.64" y="1721.616" fill="#FFFFFF" stroke="#000000" stroke-width="6" stroke-miterlimit="10" width="59.807" height="36.657"/>
		
			<rect x="1727.621" y="1623.338" fill="#FFFFFF" stroke="#000000" stroke-width="6" stroke-miterlimit="10" width="59.825" height="32.651"/>
		
			<rect x="1779.471" y="1597.09" fill="#FFFFFF" stroke="#000000" stroke-width="6" stroke-miterlimit="10" width="58.53" height="179.04"/>
	</g>
	<g>
		
			<rect x="1828.655" y="1907.059" fill="#FFFFFF" stroke="#000000" stroke-width="6" stroke-miterlimit="10" width="68.188" height="39.628"/>
		
			<rect x="1727.64" y="1961.398" fill="#FFFFFF" stroke="#000000" stroke-width="6" stroke-miterlimit="10" width="59.807" height="36.657"/>
		
			<rect x="1727.621" y="1863.102" fill="#FFFFFF" stroke="#000000" stroke-width="6" stroke-miterlimit="10" width="59.825" height="32.671"/>
		<polygon fill="#FFFFFF" stroke="#000000" stroke-width="6" stroke-miterlimit="10" points="1838.001,1836.854 1838.001,2015.893 
			1779.471,2015.911 1779.471,1836.854 		"/>
	</g>
	<g>
		<g>
			<g>
				<g>
					<polygon fill="#FFFFFF" stroke="#000000" stroke-width="6" stroke-miterlimit="10" points="2069.048,2542.96 2099.82,2574.768 
						2099.82,2647.63 2069.048,2679.42 1995.898,2679.42 1965.127,2647.63 1965.127,2574.768 1995.898,2542.96 					"/>
					<polygon fill="#FFFFFF" stroke="#000000" stroke-width="6" stroke-miterlimit="10" points="2062.535,2555.098 
						2087.829,2581.244 2087.829,2641.135 2062.535,2667.281 2002.431,2667.281 1977.117,2641.135 1977.117,2581.244 
						2002.431,2555.098 					"/>
					<path fill="#FFFFFF" stroke="#000000" stroke-width="6" stroke-miterlimit="10" d="M1985.02,2611.186
						c0-26.203,21.242-47.455,47.445-47.455c26.202,0,47.481,21.252,47.481,47.455c0,26.23-21.279,47.453-47.481,47.453
						C2006.262,2658.639,1985.02,2637.416,1985.02,2611.186z"/>
					<path fill="#FFFFFF" stroke="#000000" stroke-width="6" stroke-miterlimit="10" d="M2002.135,2611.186
						c0-16.746,13.583-30.33,30.348-30.33c16.746,0,30.31,13.584,30.31,30.33c0,16.754-13.563,30.357-30.31,30.357
						C2015.718,2641.543,2002.135,2627.939,2002.135,2611.186z"/>
				</g>
				<g>
					<polygon fill="#FFFFFF" stroke="#000000" stroke-width="6" stroke-miterlimit="10" points="2069.048,2406.505 
						2099.82,2438.297 2099.82,2511.157 2069.048,2542.96 1995.898,2542.96 1965.127,2511.157 1965.127,2438.297 1995.898,2406.505 
											"/>
					<polygon fill="#FFFFFF" stroke="#000000" stroke-width="6" stroke-miterlimit="10" points="2062.535,2418.664 
						2087.829,2444.792 2087.829,2504.684 2062.535,2530.811 2002.431,2530.811 1977.117,2504.684 1977.117,2444.792 
						2002.431,2418.664 					"/>
					<path fill="#FFFFFF" stroke="#000000" stroke-width="6" stroke-miterlimit="10" d="M1985.02,2474.741
						c0-26.229,21.242-47.474,47.445-47.474c26.202,0,47.481,21.244,47.481,47.474c0,26.201-21.279,47.474-47.481,47.474
						C2006.262,2522.215,1985.02,2500.942,1985.02,2474.741z"/>
					<path fill="#FFFFFF" stroke="#000000" stroke-width="6" stroke-miterlimit="10" d="M2002.135,2474.723
						c0-16.738,13.583-30.338,30.348-30.338c16.746,0,30.31,13.6,30.31,30.338c0,16.766-13.563,30.347-30.31,30.347
						C2015.718,2505.069,2002.135,2491.488,2002.135,2474.723z"/>
				</g>
				<g>
					<polygon fill="#FFFFFF" stroke="#000000" stroke-width="6" stroke-miterlimit="10" points="2069.048,2270.053 
						2099.82,2301.845 2099.82,2374.697 2069.048,2406.505 1995.898,2406.505 1965.127,2374.697 1965.127,2301.845 
						1995.898,2270.053 					"/>
					<polygon fill="#FFFFFF" stroke="#000000" stroke-width="6" stroke-miterlimit="10" points="2062.535,2282.202 
						2087.829,2308.33 2087.829,2368.239 2062.535,2394.366 2002.431,2394.366 1977.117,2368.239 1977.117,2308.33 
						2002.431,2282.202 					"/>
					<path fill="#FFFFFF" stroke="#000000" stroke-width="6" stroke-miterlimit="10" d="M1985.02,2338.271
						c0-26.204,21.242-47.456,47.445-47.456c26.202,0,47.481,21.252,47.481,47.456c0,26.229-21.279,47.474-47.481,47.474
						C2006.262,2385.745,1985.02,2364.501,1985.02,2338.271z"/>
					<path fill="#FFFFFF" stroke="#000000" stroke-width="6" stroke-miterlimit="10" d="M2002.135,2338.271
						c0-16.729,13.583-30.331,30.348-30.331c16.746,0,30.31,13.603,30.31,30.331c0,16.754-13.563,30.356-30.31,30.356
						C2015.718,2368.628,2002.135,2355.025,2002.135,2338.271z"/>
				</g>
				<g>
					<polygon fill="#FFFFFF" stroke="#000000" stroke-width="6" stroke-miterlimit="10" points="2069.048,2133.591 2099.82,2165.4 
						2099.82,2238.264 2069.048,2270.053 1995.898,2270.053 1965.127,2238.264 1965.127,2165.4 1995.898,2133.591 					"/>
					<polygon fill="#FFFFFF" stroke="#000000" stroke-width="6" stroke-miterlimit="10" points="2062.535,2145.75 
						2087.829,2171.878 2087.829,2231.769 2062.535,2257.896 2002.431,2257.896 1977.117,2231.769 1977.117,2171.878 
						2002.431,2145.75 					"/>
					<path fill="#FFFFFF" stroke="#000000" stroke-width="6" stroke-miterlimit="10" d="M1985.02,2201.819
						c0-26.204,21.242-47.448,47.445-47.448c26.202,0,47.481,21.244,47.481,47.448c0,26.212-21.279,47.452-47.481,47.452
						C2006.262,2249.271,1985.02,2228.031,1985.02,2201.819z"/>
					<path fill="#FFFFFF" stroke="#000000" stroke-width="6" stroke-miterlimit="10" d="M2002.135,2201.819
						c0-16.749,13.583-30.331,30.348-30.331c16.746,0,30.31,13.582,30.31,30.331c0,16.754-13.563,30.336-30.31,30.336
						C2015.718,2232.155,2002.135,2218.573,2002.135,2201.819z"/>
				</g>
			</g>
			<g>
				<g>
					<polygon fill="#FFFFFF" stroke="#000000" stroke-width="6" stroke-miterlimit="10" points="2069.048,1997.139 
						2099.82,2028.931 2099.82,2101.801 2069.048,2133.591 1995.917,2133.591 1965.127,2101.801 1965.127,2028.931 
						1995.917,1997.139 					"/>
					<polygon fill="#FFFFFF" stroke="#000000" stroke-width="6" stroke-miterlimit="10" points="2062.535,2009.277 
						2087.829,2035.407 2087.829,2095.314 2062.535,2121.444 2002.431,2121.444 1977.117,2095.314 1977.117,2035.407 
						2002.431,2009.277 					"/>
					<path fill="#FFFFFF" stroke="#000000" stroke-width="6" stroke-miterlimit="10" d="M1985.02,2065.356
						c0-26.211,21.242-47.455,47.445-47.455c26.202,0,47.481,21.244,47.481,47.455c0,26.23-21.279,47.474-47.481,47.474
						C2006.262,2112.83,1985.02,2091.587,1985.02,2065.356z"/>
					<path fill="#FFFFFF" stroke="#000000" stroke-width="6" stroke-miterlimit="10" d="M2002.135,2065.356
						c0-16.738,13.583-30.338,30.348-30.338c16.746,0,30.328,13.6,30.328,30.338c0,16.747-13.582,30.347-30.328,30.347
						C2015.718,2095.703,2002.135,2082.104,2002.135,2065.356z"/>
				</g>
				<g>
					<polygon fill="#FFFFFF" stroke="#000000" stroke-width="6" stroke-miterlimit="10" points="2069.048,1860.669 
						2099.82,1892.486 2099.82,1965.35 2069.048,1997.139 1995.917,1997.139 1965.127,1965.35 1965.127,1892.486 1995.917,1860.669 
											"/>
					<polygon fill="#FFFFFF" stroke="#000000" stroke-width="6" stroke-miterlimit="10" points="2062.535,1872.835 
						2087.829,1898.963 2087.829,1958.854 2062.535,1984.981 2002.431,1984.981 1977.117,1958.854 1977.117,1898.963 
						2002.431,1872.835 					"/>
					<path fill="#FFFFFF" stroke="#000000" stroke-width="6" stroke-miterlimit="10" d="M1985.02,1928.904
						c0-26.203,21.242-47.456,47.445-47.456c26.202,0,47.481,21.253,47.481,47.456c0,26.212-21.279,47.475-47.481,47.475
						C2006.262,1976.379,1985.02,1955.116,1985.02,1928.904z"/>
					<path fill="#FFFFFF" stroke="#000000" stroke-width="6" stroke-miterlimit="10" d="M2002.135,1928.904
						c0-16.746,13.583-30.33,30.348-30.33c16.746,0,30.328,13.584,30.328,30.33c0,16.755-13.582,30.339-30.328,30.339
						C2015.718,1959.243,2002.135,1945.659,2002.135,1928.904z"/>
				</g>
				<g>
					<polygon fill="#FFFFFF" stroke="#000000" stroke-width="6" stroke-miterlimit="10" points="2069.048,1724.225 
						2099.82,1756.016 2099.82,1828.878 2069.048,1860.669 1995.917,1860.669 1965.127,1828.878 1965.127,1756.016 
						1995.917,1724.225 					"/>
					<polygon fill="#FFFFFF" stroke="#000000" stroke-width="6" stroke-miterlimit="10" points="2062.535,1736.364 
						2087.829,1762.511 2087.829,1822.401 2062.535,1848.529 2002.431,1848.529 1977.117,1822.401 1977.117,1762.511 
						2002.431,1736.364 					"/>
					<path fill="#FFFFFF" stroke="#000000" stroke-width="6" stroke-miterlimit="10" d="M1985.02,1792.461
						c0-26.211,21.242-47.474,47.445-47.474c26.202,0,47.481,21.263,47.481,47.474c0,26.203-21.279,47.454-47.481,47.454
						C2006.262,1839.915,1985.02,1818.664,1985.02,1792.461z"/>
					<path fill="#FFFFFF" stroke="#000000" stroke-width="6" stroke-miterlimit="10" d="M2002.135,1792.441
						c0-16.737,13.583-30.337,30.348-30.337c16.746,0,30.328,13.6,30.328,30.337c0,16.766-13.582,30.348-30.328,30.348
						C2015.718,1822.789,2002.135,1809.207,2002.135,1792.441z"/>
				</g>
				<g>
					<polygon fill="#FFFFFF" stroke="#000000" stroke-width="6" stroke-miterlimit="10" points="2069.048,1587.772 
						2099.82,1619.563 2099.82,1692.434 2069.048,1724.225 1995.917,1724.225 1965.127,1692.434 1965.127,1619.563 
						1995.917,1587.772 					"/>
					<polygon fill="#FFFFFF" stroke="#000000" stroke-width="6" stroke-miterlimit="10" points="2062.535,1599.911 
						2087.829,1626.049 2087.829,1685.93 2062.535,1712.086 2002.431,1712.086 1977.117,1685.93 1977.117,1626.049 
						2002.431,1599.911 					"/>
					<path fill="#FFFFFF" stroke="#000000" stroke-width="6" stroke-miterlimit="10" d="M1985.02,1655.989
						c0-26.212,21.242-47.455,47.445-47.455c26.202,0,47.481,21.243,47.481,47.455c0,26.23-21.279,47.474-47.481,47.474
						C2006.262,1703.463,1985.02,1682.22,1985.02,1655.989z"/>
					<path fill="#FFFFFF" stroke="#000000" stroke-width="6" stroke-miterlimit="10" d="M2002.135,1655.989
						c0-16.755,13.583-30.329,30.348-30.329c16.746,0,30.328,13.574,30.328,30.329c0,16.747-13.582,30.348-30.328,30.348
						C2015.718,1686.337,2002.135,1672.736,2002.135,1655.989z"/>
				</g>
			</g>
		</g>
		<g>
			<g>
				<g>
					<polygon fill="#FFFFFF" stroke="#000000" stroke-width="6" stroke-miterlimit="10" points="2069.048,1451.303 
						2099.82,1483.121 2099.82,1555.964 2069.048,1587.772 1995.898,1587.772 1965.127,1555.964 1965.127,1483.121 
						1995.898,1451.303 					"/>
					<polygon fill="#FFFFFF" stroke="#000000" stroke-width="6" stroke-miterlimit="10" points="2062.535,1463.469 
						2087.829,1489.598 2087.829,1549.487 2062.535,1575.615 2002.431,1575.615 1977.117,1549.487 1977.117,1489.598 
						2002.431,1463.469 					"/>
					<path fill="#FFFFFF" stroke="#000000" stroke-width="6" stroke-miterlimit="10" d="M1985.02,1519.537
						c0-26.202,21.242-47.455,47.445-47.455c26.202,0,47.481,21.253,47.481,47.455c0,26.23-21.279,47.454-47.481,47.454
						C2006.262,1566.991,1985.02,1545.768,1985.02,1519.537z"/>
					<path fill="#FFFFFF" stroke="#000000" stroke-width="6" stroke-miterlimit="10" d="M2002.135,1519.537
						c0-16.746,13.583-30.329,30.348-30.329c16.746,0,30.31,13.583,30.31,30.329c0,16.756-13.563,30.339-30.31,30.339
						C2015.718,1549.876,2002.135,1536.293,2002.135,1519.537z"/>
				</g>
				<g>
					<polygon fill="#FFFFFF" stroke="#000000" stroke-width="6" stroke-miterlimit="10" points="2069.048,1314.858 
						2099.82,1346.649 2099.82,1419.51 2069.048,1451.303 1995.898,1451.303 1965.127,1419.51 1965.127,1346.649 1995.898,1314.858 
											"/>
					<polygon fill="#FFFFFF" stroke="#000000" stroke-width="6" stroke-miterlimit="10" points="2062.535,1326.998 
						2087.829,1353.144 2087.829,1413.035 2062.535,1439.162 2002.431,1439.162 1977.117,1413.035 1977.117,1353.144 
						2002.431,1326.998 					"/>
					<path fill="#FFFFFF" stroke="#000000" stroke-width="6" stroke-miterlimit="10" d="M1985.02,1383.093
						c0-26.23,21.242-47.454,47.445-47.454c26.202,0,47.481,21.224,47.481,47.454c0,26.203-21.279,47.456-47.481,47.456
						C2006.262,1430.549,1985.02,1409.296,1985.02,1383.093z"/>
					<path fill="#FFFFFF" stroke="#000000" stroke-width="6" stroke-miterlimit="10" d="M2002.135,1383.093
						c0-16.755,13.583-30.337,30.348-30.337c16.746,0,30.31,13.582,30.31,30.337c0,16.748-13.563,30.33-30.31,30.33
						C2015.718,1413.423,2002.135,1399.841,2002.135,1383.093z"/>
				</g>
				<g>
					<polygon fill="#FFFFFF" stroke="#000000" stroke-width="6" stroke-miterlimit="10" points="2069.048,1178.406 
						2099.82,1210.197 2099.82,1283.067 2069.048,1314.858 1995.898,1314.858 1965.127,1283.067 1965.127,1210.197 
						1995.898,1178.406 					"/>
					<polygon fill="#FFFFFF" stroke="#000000" stroke-width="6" stroke-miterlimit="10" points="2062.535,1190.545 
						2087.829,1216.683 2087.829,1276.591 2062.535,1302.72 2002.431,1302.72 1977.117,1276.591 1977.117,1216.683 
						2002.431,1190.545 					"/>
					<path fill="#FFFFFF" stroke="#000000" stroke-width="6" stroke-miterlimit="10" d="M1985.02,1246.642
						c0-26.23,21.242-47.474,47.445-47.474c26.202,0,47.481,21.244,47.481,47.474c0,26.211-21.279,47.455-47.481,47.455
						C2006.262,1294.097,1985.02,1272.853,1985.02,1246.642z"/>
					<path fill="#FFFFFF" stroke="#000000" stroke-width="6" stroke-miterlimit="10" d="M2002.135,1246.623
						c0-16.728,13.583-30.329,30.348-30.329c16.746,0,30.31,13.601,30.31,30.329c0,16.774-13.563,30.356-30.31,30.356
						C2015.718,1276.979,2002.135,1263.397,2002.135,1246.623z"/>
				</g>
				<g>
					<polygon fill="#FFFFFF" stroke="#000000" stroke-width="6" stroke-miterlimit="10" points="2069.048,1041.963 
						2099.82,1073.754 2099.82,1146.597 2069.048,1178.406 1995.898,1178.406 1965.127,1146.597 1965.127,1073.754 
						1995.898,1041.963 					"/>
					<polygon fill="#FFFFFF" stroke="#000000" stroke-width="6" stroke-miterlimit="10" points="2062.535,1054.102 
						2087.829,1080.23 2087.829,1140.139 2062.535,1166.266 2002.431,1166.266 1977.117,1140.139 1977.117,1080.23 
						2002.431,1054.102 					"/>
					<path fill="#FFFFFF" stroke="#000000" stroke-width="6" stroke-miterlimit="10" d="M1985.02,1110.171
						c0-26.202,21.242-47.455,47.445-47.455c26.202,0,47.481,21.253,47.481,47.455c0,26.23-21.279,47.454-47.481,47.454
						C2006.262,1157.625,1985.02,1136.401,1985.02,1110.171z"/>
					<path fill="#FFFFFF" stroke="#000000" stroke-width="6" stroke-miterlimit="10" d="M2002.135,1110.171
						c0-16.748,13.583-30.329,30.348-30.329c16.746,0,30.31,13.582,30.31,30.329c0,16.755-13.563,30.357-30.31,30.357
						C2015.718,1140.528,2002.135,1126.926,2002.135,1110.171z"/>
				</g>
			</g>
			<g>
				<g>
					<polygon fill="#FFFFFF" stroke="#000000" stroke-width="6" stroke-miterlimit="10" points="2069.048,905.492 2099.82,937.282 
						2099.82,1010.144 2069.048,1041.963 1995.917,1041.963 1965.127,1010.144 1965.127,937.282 1995.917,905.492 					"/>
					<polygon fill="#FFFFFF" stroke="#000000" stroke-width="6" stroke-miterlimit="10" points="2062.535,917.63 2087.829,943.787 
						2087.829,1003.667 2062.535,1029.796 2002.431,1029.796 1977.117,1003.667 1977.117,943.787 2002.431,917.63 					"/>
					<path fill="#FFFFFF" stroke="#000000" stroke-width="6" stroke-miterlimit="10" d="M1985.02,973.708
						c0-26.212,21.242-47.454,47.445-47.454c26.202,0,47.481,21.242,47.481,47.454c0,26.221-21.279,47.474-47.481,47.474
						C2006.262,1021.182,1985.02,999.929,1985.02,973.708z"/>
					<path fill="#FFFFFF" stroke="#000000" stroke-width="6" stroke-miterlimit="10" d="M2002.135,973.708
						c0-16.737,13.583-30.338,30.348-30.338c16.746,0,30.328,13.601,30.328,30.338c0,16.765-13.582,30.348-30.328,30.348
						C2015.718,1004.056,2002.135,990.473,2002.135,973.708z"/>
				</g>
				<g>
					<polygon fill="#FFFFFF" stroke="#000000" stroke-width="6" stroke-miterlimit="10" points="2069.048,769.04 2099.82,800.839 
						2099.82,873.701 2069.048,905.492 1995.917,905.492 1965.127,873.701 1965.127,800.839 1995.917,769.04 					"/>
					<polygon fill="#FFFFFF" stroke="#000000" stroke-width="6" stroke-miterlimit="10" points="2062.535,781.188 2087.829,807.316 
						2087.829,867.224 2062.535,893.353 2002.431,893.353 1977.117,867.224 1977.117,807.316 2002.431,781.188 					"/>
					<path fill="#FFFFFF" stroke="#000000" stroke-width="6" stroke-miterlimit="10" d="M1985.02,837.256
						c0-26.23,21.242-47.456,47.445-47.456c26.202,0,47.481,21.226,47.481,47.456s-21.279,47.474-47.481,47.474
						C2006.262,884.73,1985.02,863.486,1985.02,837.256z"/>
					<path fill="#FFFFFF" stroke="#000000" stroke-width="6" stroke-miterlimit="10" d="M2002.135,837.256
						c0-16.747,13.583-30.329,30.348-30.329c16.746,0,30.328,13.583,30.328,30.329c0,16.755-13.582,30.338-30.328,30.338
						C2015.718,867.595,2002.135,854.012,2002.135,837.256z"/>
				</g>
				<g>
					<polygon fill="#FFFFFF" stroke="#000000" stroke-width="6" stroke-miterlimit="10" points="2069.048,632.577 2099.82,664.368 
						2099.82,737.23 2069.048,769.04 1995.917,769.04 1965.127,737.23 1965.127,664.368 1995.917,632.577 					"/>
					<polygon fill="#FFFFFF" stroke="#000000" stroke-width="6" stroke-miterlimit="10" points="2062.535,644.735 2087.829,670.863 
						2087.829,730.754 2062.535,756.881 2002.431,756.881 1977.117,730.754 1977.117,670.863 2002.431,644.735 					"/>
					<path fill="#FFFFFF" stroke="#000000" stroke-width="6" stroke-miterlimit="10" d="M1985.02,700.813
						c0-26.231,21.242-47.474,47.445-47.474c26.202,0,47.481,21.242,47.481,47.474c0,26.203-21.279,47.473-47.481,47.473
						C2006.262,748.286,1985.02,727.016,1985.02,700.813z"/>
					<path fill="#FFFFFF" stroke="#000000" stroke-width="6" stroke-miterlimit="10" d="M2002.135,700.785
						c0-16.728,13.583-30.31,30.348-30.31c16.746,0,30.328,13.582,30.328,30.31c0,16.775-13.582,30.357-30.328,30.357
						C2015.718,731.142,2002.135,717.56,2002.135,700.785z"/>
				</g>
				<g>
					<polygon fill="#FFFFFF" stroke="#000000" stroke-width="6" stroke-miterlimit="10" points="2069.048,496.125 2099.82,527.916 
						2099.82,600.759 2069.048,632.577 1995.917,632.577 1965.127,600.759 1965.127,527.916 1995.917,496.125 					"/>
					<polygon fill="#FFFFFF" stroke="#000000" stroke-width="6" stroke-miterlimit="10" points="2062.535,508.264 2087.829,534.393 
						2087.829,594.3 2062.535,620.438 2002.431,620.438 1977.117,594.3 1977.117,534.393 2002.431,508.264 					"/>
					<path fill="#FFFFFF" stroke="#000000" stroke-width="6" stroke-miterlimit="10" d="M1985.02,564.36
						c0-26.23,21.242-47.474,47.445-47.474c26.202,0,47.481,21.244,47.481,47.474c0,26.211-21.279,47.455-47.481,47.455
						C2006.262,611.815,1985.02,590.572,1985.02,564.36z"/>
					<path fill="#FFFFFF" stroke="#000000" stroke-width="6" stroke-miterlimit="10" d="M2002.135,564.342
						c0-16.737,13.583-30.338,30.348-30.338c16.746,0,30.328,13.601,30.328,30.338c0,16.774-13.582,30.348-30.328,30.348
						C2015.718,594.689,2002.135,581.116,2002.135,564.342z"/>
				</g>
			</g>
		</g>
		<g>
			<g>
				<polygon fill="#FFFFFF" stroke="#000000" stroke-width="6" stroke-miterlimit="10" points="2069.048,359.653 2099.82,391.473 
					2099.82,464.316 2069.048,496.125 1995.898,496.125 1965.127,464.316 1965.127,391.473 1995.898,359.653 				"/>
				<polygon fill="#FFFFFF" stroke="#000000" stroke-width="6" stroke-miterlimit="10" points="2062.535,371.802 2087.829,397.95 
					2087.829,457.839 2062.535,483.968 2002.431,483.968 1977.117,457.839 1977.117,397.95 2002.431,371.802 				"/>
				<path fill="#FFFFFF" stroke="#000000" stroke-width="6" stroke-miterlimit="10" d="M1985.02,427.89
					c0-26.202,21.242-47.474,47.445-47.474c26.202,0,47.481,21.271,47.481,47.474c0,26.212-21.279,47.454-47.481,47.454
					C2006.262,475.344,1985.02,454.102,1985.02,427.89z"/>
				<path fill="#FFFFFF" stroke="#000000" stroke-width="6" stroke-miterlimit="10" d="M2002.135,427.89
					c0-16.748,13.583-30.329,30.348-30.329c16.746,0,30.31,13.582,30.31,30.329c0,16.756-13.563,30.338-30.31,30.338
					C2015.718,458.228,2002.135,444.646,2002.135,427.89z"/>
			</g>
			<g>
				<polygon fill="#FFFFFF" stroke="#000000" stroke-width="6" stroke-miterlimit="10" points="2069.048,223.192 2099.82,255.001 
					2099.82,327.862 2069.048,359.653 1995.898,359.653 1965.127,327.862 1965.127,255.001 1995.898,223.192 				"/>
				<polygon fill="#FFFFFF" stroke="#000000" stroke-width="6" stroke-miterlimit="10" points="2062.535,235.35 2087.829,261.478 
					2087.829,321.386 2062.535,347.515 2002.431,347.515 1977.117,321.386 1977.117,261.478 2002.431,235.35 				"/>
				<path fill="#FFFFFF" stroke="#000000" stroke-width="6" stroke-miterlimit="10" d="M1985.02,291.427
					c0-26.211,21.242-47.481,47.445-47.481c26.202,0,47.481,21.27,47.481,47.481c0,26.221-21.279,47.474-47.481,47.474
					C2006.262,338.901,1985.02,317.648,1985.02,291.427z"/>
				<path fill="#FFFFFF" stroke="#000000" stroke-width="6" stroke-miterlimit="10" d="M2002.135,291.427
					c0-16.737,13.583-30.338,30.348-30.338c16.746,0,30.31,13.601,30.31,30.338c0,16.748-13.563,30.348-30.31,30.348
					C2015.718,321.775,2002.135,308.175,2002.135,291.427z"/>
			</g>
			<g>
				<polygon fill="#FFFFFF" stroke="#000000" stroke-width="6" stroke-miterlimit="10" points="2069.048,86.74 2099.82,118.531 
					2099.82,191.401 2069.048,223.192 1995.898,223.192 1965.127,191.401 1965.127,118.531 1995.898,86.74 				"/>
				<polygon fill="#FFFFFF" stroke="#000000" stroke-width="6" stroke-miterlimit="10" points="2062.535,98.878 2087.829,125.035 
					2087.829,184.916 2062.535,211.044 2002.431,211.044 1977.117,184.916 1977.117,125.035 2002.431,98.878 				"/>
				<path fill="#FFFFFF" stroke="#000000" stroke-width="6" stroke-miterlimit="10" d="M1985.02,154.975
					c0-26.211,21.242-47.474,47.445-47.474c26.202,0,47.481,21.262,47.481,47.474c0,26.212-21.279,47.456-47.481,47.456
					C2006.262,202.431,1985.02,181.187,1985.02,154.975z"/>
				<path fill="#FFFFFF" stroke="#000000" stroke-width="6" stroke-miterlimit="10" d="M2002.135,154.975
					c0-16.755,13.583-30.329,30.348-30.329c16.746,0,30.31,13.574,30.31,30.329c0,16.756-13.563,30.348-30.31,30.348
					C2015.718,185.323,2002.135,171.731,2002.135,154.975z"/>
			</g>
		</g>
	</g>
	<g>
		<g>
			<g>
				<g>
					<polygon fill="#FFFFFF" stroke="#000000" stroke-width="6" stroke-miterlimit="10" points="845.731,2544.04 876.504,2575.832 
						876.504,2648.703 845.731,2680.513 772.619,2680.513 741.809,2648.703 741.809,2575.832 772.619,2544.04 					"/>
					<polygon fill="#FFFFFF" stroke="#000000" stroke-width="6" stroke-miterlimit="10" points="839.217,2556.182 864.532,2582.335 
						864.532,2642.226 839.217,2668.354 779.114,2668.354 753.8,2642.226 753.8,2582.335 779.114,2556.182 					"/>
					<path fill="#FFFFFF" stroke="#000000" stroke-width="6" stroke-miterlimit="10" d="M761.702,2612.276
						c0-26.229,21.243-47.455,47.446-47.455c26.221,0,47.483,21.226,47.483,47.455c0,26.212-21.262,47.456-47.483,47.456
						C782.945,2659.732,761.702,2638.488,761.702,2612.276z"/>
					<path fill="#FFFFFF" stroke="#000000" stroke-width="6" stroke-miterlimit="10" d="M778.819,2612.276
						c0-16.746,13.582-30.328,30.347-30.328c16.766,0,30.33,13.582,30.33,30.328c0,16.757-13.564,30.339-30.33,30.339
						C792.401,2642.615,778.819,2629.033,778.819,2612.276z"/>
				</g>
				<g>
					<polygon fill="#FFFFFF" stroke="#000000" stroke-width="6" stroke-miterlimit="10" points="845.731,2407.599 876.504,2439.388 
						876.504,2512.25 845.731,2544.04 772.619,2544.04 741.809,2512.25 741.809,2439.388 772.619,2407.599 					"/>
					<polygon fill="#FFFFFF" stroke="#000000" stroke-width="6" stroke-miterlimit="10" points="839.217,2419.737 864.532,2445.864 
						864.532,2505.773 839.217,2531.901 779.114,2531.901 753.8,2505.773 753.8,2445.864 779.114,2419.737 					"/>
					<path fill="#FFFFFF" stroke="#000000" stroke-width="6" stroke-miterlimit="10" d="M761.702,2475.832
						c0-26.229,21.243-47.481,47.446-47.481c26.221,0,47.483,21.252,47.483,47.481c0,26.204-21.262,47.456-47.483,47.456
						C782.945,2523.288,761.702,2502.036,761.702,2475.832z"/>
					<path fill="#FFFFFF" stroke="#000000" stroke-width="6" stroke-miterlimit="10" d="M778.819,2475.807
						c0-16.729,13.582-30.331,30.347-30.331c16.766,0,30.33,13.603,30.33,30.331c0,16.771-13.564,30.356-30.33,30.356
						C792.401,2506.163,778.819,2492.578,778.819,2475.807z"/>
				</g>
				<g>
					<polygon fill="#FFFFFF" stroke="#000000" stroke-width="6" stroke-miterlimit="10" points="845.731,2271.146 876.504,2302.936 
						876.504,2375.78 845.731,2407.599 772.619,2407.599 741.809,2375.78 741.809,2302.936 772.619,2271.146 					"/>
					<polygon fill="#FFFFFF" stroke="#000000" stroke-width="6" stroke-miterlimit="10" points="839.217,2283.285 864.532,2309.423 
						864.532,2369.304 839.217,2395.432 779.114,2395.432 753.8,2369.304 753.8,2309.423 779.114,2283.285 					"/>
					<path fill="#FFFFFF" stroke="#000000" stroke-width="6" stroke-miterlimit="10" d="M761.702,2339.362
						c0-26.212,21.243-47.456,47.446-47.456c26.221,0,47.483,21.244,47.483,47.456c0,26.229-21.262,47.474-47.483,47.474
						C782.945,2386.836,761.702,2365.592,761.702,2339.362z"/>
					<path fill="#FFFFFF" stroke="#000000" stroke-width="6" stroke-miterlimit="10" d="M778.819,2339.362
						c0-16.757,13.582-30.339,30.347-30.339c16.766,0,30.33,13.582,30.33,30.339c0,16.746-13.564,30.349-30.33,30.349
						C792.401,2369.711,778.819,2356.108,778.819,2339.362z"/>
				</g>
				<g>
					<polygon fill="#FFFFFF" stroke="#000000" stroke-width="6" stroke-miterlimit="10" points="845.731,2134.674 876.504,2166.474 
						876.504,2239.336 845.731,2271.146 772.619,2271.146 741.809,2239.336 741.809,2166.474 772.619,2134.674 					"/>
					<polygon fill="#FFFFFF" stroke="#000000" stroke-width="6" stroke-miterlimit="10" points="839.217,2146.822 864.532,2172.969 
						864.532,2232.859 839.217,2258.986 779.114,2258.986 753.8,2232.859 753.8,2172.969 779.114,2146.822 					"/>
					<path fill="#FFFFFF" stroke="#000000" stroke-width="6" stroke-miterlimit="10" d="M761.702,2202.91
						c0-26.204,21.243-47.475,47.446-47.475c26.221,0,47.483,21.271,47.483,47.475c0,26.211-21.262,47.455-47.483,47.455
						C782.945,2250.365,761.702,2229.121,761.702,2202.91z"/>
					<path fill="#FFFFFF" stroke="#000000" stroke-width="6" stroke-miterlimit="10" d="M778.819,2202.892
						c0-16.728,13.582-30.31,30.347-30.31c16.766,0,30.33,13.582,30.33,30.31c0,16.775-13.564,30.356-30.33,30.356
						C792.401,2233.248,778.819,2219.667,778.819,2202.892z"/>
				</g>
			</g>
			<g>
				<g>
					<polygon fill="#FFFFFF" stroke="#000000" stroke-width="6" stroke-miterlimit="10" points="845.731,1998.232 876.504,2030.021 
						876.504,2102.884 845.731,2134.674 772.619,2134.674 741.809,2102.884 741.809,2030.021 772.619,1998.232 					"/>
					<polygon fill="#FFFFFF" stroke="#000000" stroke-width="6" stroke-miterlimit="10" points="839.217,2010.371 864.532,2036.498 
						864.532,2096.389 839.217,2122.535 779.114,2122.535 753.8,2096.389 753.8,2036.498 779.114,2010.371 					"/>
					<path fill="#FFFFFF" stroke="#000000" stroke-width="6" stroke-miterlimit="10" d="M761.72,2066.447
						c0-26.211,21.243-47.455,47.427-47.455c26.221,0,47.483,21.244,47.483,47.455c0,26.223-21.262,47.474-47.483,47.474
						C782.963,2113.921,761.72,2092.67,761.72,2066.447z"/>
					<path fill="#FFFFFF" stroke="#000000" stroke-width="6" stroke-miterlimit="10" d="M778.837,2066.447
						c0-16.754,13.563-30.338,30.328-30.338c16.766,0,30.348,13.584,30.348,30.338c0,16.746-13.582,30.35-30.348,30.35
						C792.401,2096.797,778.837,2083.193,778.837,2066.447z"/>
				</g>
				<g>
					<polygon fill="#FFFFFF" stroke="#000000" stroke-width="6" stroke-miterlimit="10" points="845.731,1861.76 876.504,1893.551 
						876.504,1966.422 845.731,1998.232 772.619,1998.232 741.809,1966.422 741.809,1893.551 772.619,1861.76 					"/>
					<polygon fill="#FFFFFF" stroke="#000000" stroke-width="6" stroke-miterlimit="10" points="839.217,1873.918 864.532,1900.054 
						864.532,1959.938 839.217,1986.072 779.114,1986.072 753.8,1959.938 753.8,1900.054 779.114,1873.918 					"/>
					<path fill="#FFFFFF" stroke="#000000" stroke-width="6" stroke-miterlimit="10" d="M761.72,1929.995
						c0-26.229,21.243-47.473,47.427-47.473c26.221,0,47.483,21.243,47.483,47.473c0,26.212-21.262,47.475-47.483,47.475
						C782.963,1977.47,761.72,1956.207,761.72,1929.995z"/>
					<path fill="#FFFFFF" stroke="#000000" stroke-width="6" stroke-miterlimit="10" d="M778.837,1929.995
						c0-16.757,13.563-30.356,30.328-30.356c16.766,0,30.348,13.6,30.348,30.356s-13.582,30.328-30.348,30.328
						C792.401,1960.323,778.837,1946.752,778.837,1929.995z"/>
				</g>
				<g>
					<polygon fill="#FFFFFF" stroke="#000000" stroke-width="6" stroke-miterlimit="10" points="845.731,1725.316 876.504,1757.107 
						876.504,1829.969 845.731,1861.76 772.619,1861.76 741.809,1829.969 741.809,1757.107 772.619,1725.316 					"/>
					<polygon fill="#FFFFFF" stroke="#000000" stroke-width="6" stroke-miterlimit="10" points="839.217,1737.455 864.532,1763.584 
						864.532,1823.492 839.217,1849.621 779.114,1849.621 753.8,1823.492 753.8,1763.584 779.114,1737.455 					"/>
					<path fill="#FFFFFF" stroke="#000000" stroke-width="6" stroke-miterlimit="10" d="M761.72,1793.524
						c0-26.202,21.243-47.454,47.427-47.454c26.221,0,47.483,21.252,47.483,47.454c0,26.23-21.262,47.474-47.483,47.474
						C782.963,1840.998,761.72,1819.755,761.72,1793.524z"/>
					<path fill="#FFFFFF" stroke="#000000" stroke-width="6" stroke-miterlimit="10" d="M778.837,1793.524
						c0-16.728,13.563-30.329,30.328-30.329c16.766,0,30.348,13.602,30.348,30.329c0,16.774-13.582,30.356-30.348,30.356
						C792.401,1823.881,778.837,1810.299,778.837,1793.524z"/>
				</g>
				<g>
					<polygon fill="#FFFFFF" stroke="#000000" stroke-width="6" stroke-miterlimit="10" points="845.731,1588.865 876.504,1620.655 
						876.504,1693.517 845.731,1725.316 772.619,1725.316 741.809,1693.517 741.809,1620.655 772.619,1588.865 					"/>
					<polygon fill="#FFFFFF" stroke="#000000" stroke-width="6" stroke-miterlimit="10" points="839.217,1601.004 864.532,1627.132 
						864.532,1687.021 839.217,1713.169 779.114,1713.169 753.8,1687.021 753.8,1627.132 779.114,1601.004 					"/>
					<path fill="#FFFFFF" stroke="#000000" stroke-width="6" stroke-miterlimit="10" d="M761.72,1657.082
						c0-26.212,21.243-47.475,47.427-47.475c26.221,0,47.483,21.263,47.483,47.475c0,26.202-21.262,47.474-47.483,47.474
						C782.963,1704.556,761.72,1683.284,761.72,1657.082z"/>
					<path fill="#FFFFFF" stroke="#000000" stroke-width="6" stroke-miterlimit="10" d="M778.837,1657.082
						c0-16.756,13.563-30.339,30.328-30.339c16.766,0,30.348,13.583,30.348,30.339c0,16.746-13.582,30.329-30.348,30.329
						C792.401,1687.411,778.837,1673.828,778.837,1657.082z"/>
				</g>
			</g>
		</g>
		<g>
			<g>
				<g>
					<polygon fill="#FFFFFF" stroke="#000000" stroke-width="6" stroke-miterlimit="10" points="845.731,1452.393 876.504,1484.202 
						876.504,1557.056 845.731,1588.865 772.619,1588.865 741.809,1557.056 741.809,1484.202 772.619,1452.393 					"/>
					<polygon fill="#FFFFFF" stroke="#000000" stroke-width="6" stroke-miterlimit="10" points="839.217,1464.533 864.532,1490.67 
						864.532,1550.57 839.217,1576.707 779.114,1576.707 753.8,1550.57 753.8,1490.67 779.114,1464.533 					"/>
					<path fill="#FFFFFF" stroke="#000000" stroke-width="6" stroke-miterlimit="10" d="M761.702,1520.628
						c0-26.229,21.243-47.472,47.446-47.472c26.221,0,47.483,21.242,47.483,47.472c0,26.212-21.262,47.456-47.483,47.456
						C782.945,1568.084,761.702,1546.84,761.702,1520.628z"/>
					<path fill="#FFFFFF" stroke="#000000" stroke-width="6" stroke-miterlimit="10" d="M778.819,1520.609
						c0-16.728,13.582-30.327,30.347-30.327c16.766,0,30.33,13.6,30.33,30.327c0,16.775-13.564,30.348-30.33,30.348
						C792.401,1550.957,778.819,1537.385,778.819,1520.609z"/>
				</g>
				<g>
					<polygon fill="#FFFFFF" stroke="#000000" stroke-width="6" stroke-miterlimit="10" points="845.731,1315.95 876.504,1347.741 
						876.504,1420.603 845.731,1452.393 772.619,1452.393 741.809,1420.603 741.809,1347.741 772.619,1315.95 					"/>
					<polygon fill="#FFFFFF" stroke="#000000" stroke-width="6" stroke-miterlimit="10" points="839.217,1328.089 864.532,1354.236 
						864.532,1414.126 839.217,1440.255 779.114,1440.255 753.8,1414.126 753.8,1354.236 779.114,1328.089 					"/>
					<path fill="#FFFFFF" stroke="#000000" stroke-width="6" stroke-miterlimit="10" d="M761.702,1384.158
						c0-26.203,21.243-47.456,47.446-47.456c26.221,0,47.483,21.253,47.483,47.456c0,26.229-21.262,47.474-47.483,47.474
						C782.945,1431.632,761.702,1410.388,761.702,1384.158z"/>
					<path fill="#FFFFFF" stroke="#000000" stroke-width="6" stroke-miterlimit="10" d="M778.819,1384.158
						c0-16.729,13.582-30.311,30.347-30.311c16.766,0,30.33,13.583,30.33,30.311c0,16.773-13.564,30.356-30.33,30.356
						C792.401,1414.515,778.819,1400.932,778.819,1384.158z"/>
				</g>
				<g>
					<polygon fill="#FFFFFF" stroke="#000000" stroke-width="6" stroke-miterlimit="10" points="845.731,1179.498 876.504,1211.289 
						876.504,1284.16 845.731,1315.95 772.619,1315.95 741.809,1284.16 741.809,1211.289 772.619,1179.498 					"/>
					<polygon fill="#FFFFFF" stroke="#000000" stroke-width="6" stroke-miterlimit="10" points="839.217,1191.637 864.532,1217.766 
						864.532,1277.674 839.217,1303.803 779.114,1303.803 753.8,1277.674 753.8,1217.766 779.114,1191.637 					"/>
					<path fill="#FFFFFF" stroke="#000000" stroke-width="6" stroke-miterlimit="10" d="M761.702,1247.733
						c0-26.23,21.243-47.474,47.446-47.474c26.221,0,47.483,21.244,47.483,47.474c0,26.212-21.262,47.454-47.483,47.454
						C782.945,1295.188,761.702,1273.945,761.702,1247.733z"/>
					<path fill="#FFFFFF" stroke="#000000" stroke-width="6" stroke-miterlimit="10" d="M778.819,1247.715
						c0-16.737,13.582-30.338,30.347-30.338c16.766,0,30.33,13.602,30.33,30.338c0,16.747-13.564,30.348-30.33,30.348
						C792.401,1278.063,778.819,1264.461,778.819,1247.715z"/>
				</g>
				<g>
					<polygon fill="#FFFFFF" stroke="#000000" stroke-width="6" stroke-miterlimit="10" points="845.731,1043.045 876.504,1074.845 
						876.504,1147.688 845.731,1179.498 772.619,1179.498 741.809,1147.688 741.809,1074.845 772.619,1043.045 					"/>
					<polygon fill="#FFFFFF" stroke="#000000" stroke-width="6" stroke-miterlimit="10" points="839.217,1055.194 864.532,1081.321 
						864.532,1141.231 839.217,1167.358 779.114,1167.358 753.8,1141.231 753.8,1081.321 779.114,1055.194 					"/>
					<path fill="#FFFFFF" stroke="#000000" stroke-width="6" stroke-miterlimit="10" d="M761.702,1111.262
						c0-26.202,21.243-47.454,47.446-47.454c26.221,0,47.483,21.252,47.483,47.454c0,26.212-21.262,47.456-47.483,47.456
						C782.945,1158.717,761.702,1137.474,761.702,1111.262z"/>
					<path fill="#FFFFFF" stroke="#000000" stroke-width="6" stroke-miterlimit="10" d="M778.819,1111.262
						c0-16.746,13.582-30.348,30.347-30.348c16.766,0,30.33,13.602,30.33,30.348c0,16.757-13.564,30.357-30.33,30.357
						C792.401,1141.619,778.819,1128.019,778.819,1111.262z"/>
				</g>
			</g>
			<g>
				<g>
					<polygon fill="#FFFFFF" stroke="#000000" stroke-width="6" stroke-miterlimit="10" points="845.731,906.584 876.504,938.375 
						876.504,1011.236 845.731,1043.045 772.619,1043.045 741.809,1011.236 741.809,938.375 772.619,906.584 					"/>
					<polygon fill="#FFFFFF" stroke="#000000" stroke-width="6" stroke-miterlimit="10" points="839.217,918.722 864.532,944.87 
						864.532,1004.759 839.217,1030.888 779.114,1030.888 753.8,1004.759 753.8,944.87 779.114,918.722 					"/>
					<path fill="#FFFFFF" stroke="#000000" stroke-width="6" stroke-miterlimit="10" d="M761.72,974.801
						c0-26.212,21.243-47.456,47.427-47.456c26.221,0,47.483,21.244,47.483,47.456c0,26.221-21.262,47.474-47.483,47.474
						C782.963,1022.274,761.72,1001.021,761.72,974.801z"/>
					<path fill="#FFFFFF" stroke="#000000" stroke-width="6" stroke-miterlimit="10" d="M778.837,974.801
						c0-16.737,13.563-30.339,30.328-30.339c16.766,0,30.348,13.602,30.348,30.339c0,16.746-13.582,30.348-30.348,30.348
						C792.401,1005.148,778.837,991.547,778.837,974.801z"/>
				</g>
				<g>
					<polygon fill="#FFFFFF" stroke="#000000" stroke-width="6" stroke-miterlimit="10" points="845.731,770.13 876.504,801.921 
						876.504,874.793 845.731,906.584 772.619,906.584 741.809,874.793 741.809,801.921 772.619,770.13 					"/>
					<polygon fill="#FFFFFF" stroke="#000000" stroke-width="6" stroke-miterlimit="10" points="839.217,782.271 864.532,808.407 
						864.532,868.289 839.217,894.444 779.114,894.444 753.8,868.289 753.8,808.407 779.114,782.271 					"/>
					<path fill="#FFFFFF" stroke="#000000" stroke-width="6" stroke-miterlimit="10" d="M761.72,838.349
						c0-26.212,21.243-47.456,47.427-47.456c26.221,0,47.483,21.244,47.483,47.456c0,26.23-21.262,47.472-47.483,47.472
						C782.963,885.821,761.72,864.579,761.72,838.349z"/>
					<path fill="#FFFFFF" stroke="#000000" stroke-width="6" stroke-miterlimit="10" d="M778.837,838.349
						c0-16.757,13.563-30.329,30.328-30.329c16.766,0,30.348,13.572,30.348,30.329c0,16.746-13.582,30.328-30.348,30.328
						C792.401,868.676,778.837,855.095,778.837,838.349z"/>
				</g>
				<g>
					<polygon fill="#FFFFFF" stroke="#000000" stroke-width="6" stroke-miterlimit="10" points="845.731,633.66 876.504,665.46 
						876.504,738.321 845.731,770.13 772.619,770.13 741.809,738.321 741.809,665.46 772.619,633.66 					"/>
					<polygon fill="#FFFFFF" stroke="#000000" stroke-width="6" stroke-miterlimit="10" points="839.217,645.808 864.532,671.937 
						864.532,731.845 839.217,757.974 779.114,757.974 753.8,731.845 753.8,671.937 779.114,645.808 					"/>
					<path fill="#FFFFFF" stroke="#000000" stroke-width="6" stroke-miterlimit="10" d="M761.72,701.895
						c0-26.221,21.243-47.474,47.427-47.474c26.221,0,47.483,21.253,47.483,47.474c0,26.212-21.262,47.456-47.483,47.456
						C782.963,749.351,761.72,728.107,761.72,701.895z"/>
					<path fill="#FFFFFF" stroke="#000000" stroke-width="6" stroke-miterlimit="10" d="M778.837,701.877
						c0-16.728,13.563-30.311,30.328-30.311c16.766,0,30.348,13.583,30.348,30.311c0,16.774-13.582,30.356-30.348,30.356
						C792.401,732.233,778.837,718.651,778.837,701.877z"/>
				</g>
				<g>
					<polygon fill="#FFFFFF" stroke="#000000" stroke-width="6" stroke-miterlimit="10" points="845.731,497.217 876.504,529.008 
						876.504,601.851 845.731,633.66 772.619,633.66 741.809,601.851 741.809,529.008 772.619,497.217 					"/>
					<polygon fill="#FFFFFF" stroke="#000000" stroke-width="6" stroke-miterlimit="10" points="839.217,509.355 864.532,535.484 
						864.532,595.393 839.217,621.521 779.114,621.521 753.8,595.393 753.8,535.484 779.114,509.355 					"/>
					<path fill="#FFFFFF" stroke="#000000" stroke-width="6" stroke-miterlimit="10" d="M761.72,565.452
						c0-26.23,21.243-47.474,47.427-47.474c26.221,0,47.483,21.244,47.483,47.474c0,26.203-21.262,47.454-47.483,47.454
						C782.963,612.906,761.72,591.655,761.72,565.452z"/>
					<path fill="#FFFFFF" stroke="#000000" stroke-width="6" stroke-miterlimit="10" d="M778.837,565.434
						c0-16.737,13.563-30.338,30.328-30.338c16.766,0,30.348,13.601,30.348,30.338c0,16.765-13.582,30.348-30.348,30.348
						C792.401,595.782,778.837,582.199,778.837,565.434z"/>
				</g>
			</g>
		</g>
		<g>
			<g>
				<polygon fill="#FFFFFF" stroke="#000000" stroke-width="6" stroke-miterlimit="10" points="845.731,360.746 876.504,392.555 
					876.504,465.407 845.731,497.217 772.619,497.217 741.809,465.407 741.809,392.555 772.619,360.746 				"/>
				<polygon fill="#FFFFFF" stroke="#000000" stroke-width="6" stroke-miterlimit="10" points="839.217,372.885 864.532,399.041 
					864.532,458.922 839.217,485.059 779.114,485.059 753.8,458.922 753.8,399.041 779.114,372.885 				"/>
				<path fill="#FFFFFF" stroke="#000000" stroke-width="6" stroke-miterlimit="10" d="M761.702,428.98
					c0-26.211,21.243-47.472,47.446-47.472c26.221,0,47.483,21.261,47.483,47.472c0,26.212-21.262,47.456-47.483,47.456
					C782.945,476.436,761.702,455.192,761.702,428.98z"/>
				<path fill="#FFFFFF" stroke="#000000" stroke-width="6" stroke-miterlimit="10" d="M778.819,428.962
					c0-16.737,13.582-30.31,30.347-30.31c16.766,0,30.33,13.572,30.33,30.31c0,16.775-13.564,30.348-30.33,30.348
					C792.401,459.31,778.819,445.737,778.819,428.962z"/>
			</g>
			<g>
				<polygon fill="#FFFFFF" stroke="#000000" stroke-width="6" stroke-miterlimit="10" points="845.731,224.275 876.504,256.093 
					876.504,328.955 845.731,360.746 772.619,360.746 741.809,328.955 741.809,256.093 772.619,224.275 				"/>
				<polygon fill="#FFFFFF" stroke="#000000" stroke-width="6" stroke-miterlimit="10" points="839.217,236.441 864.532,262.57 
					864.532,322.459 839.217,348.607 779.114,348.607 753.8,322.459 753.8,262.57 779.114,236.441 				"/>
				<path fill="#FFFFFF" stroke="#000000" stroke-width="6" stroke-miterlimit="10" d="M761.702,292.51
					c0-26.203,21.243-47.474,47.446-47.474c26.221,0,47.483,21.271,47.483,47.474c0,26.23-21.262,47.474-47.483,47.474
					C782.945,339.984,761.702,318.74,761.702,292.51z"/>
				<path fill="#FFFFFF" stroke="#000000" stroke-width="6" stroke-miterlimit="10" d="M778.819,292.51
					c0-16.747,13.582-30.329,30.347-30.329c16.766,0,30.33,13.583,30.33,30.329c0,16.755-13.564,30.357-30.33,30.357
					C792.401,322.867,778.819,309.266,778.819,292.51z"/>
			</g>
			<g>
				<polygon fill="#FFFFFF" stroke="#000000" stroke-width="6" stroke-miterlimit="10" points="845.731,87.831 876.504,119.623 
					876.504,192.484 845.731,224.275 772.619,224.275 741.809,192.484 741.809,119.623 772.619,87.831 				"/>
				<polygon fill="#FFFFFF" stroke="#000000" stroke-width="6" stroke-miterlimit="10" points="839.217,99.971 864.532,126.118 
					864.532,186.008 839.217,212.135 779.114,212.135 753.8,186.008 753.8,126.118 779.114,99.971 				"/>
				<path fill="#FFFFFF" stroke="#000000" stroke-width="6" stroke-miterlimit="10" d="M761.702,156.067
					c0-26.211,21.243-47.474,47.446-47.474c26.221,0,47.483,21.262,47.483,47.474c0,26.203-21.262,47.454-47.483,47.454
					C782.945,203.521,761.702,182.27,761.702,156.067z"/>
				<path fill="#FFFFFF" stroke="#000000" stroke-width="6" stroke-miterlimit="10" d="M778.819,156.049
					c0-16.738,13.582-30.338,30.347-30.338c16.766,0,30.33,13.6,30.33,30.338c0,16.765-13.564,30.347-30.33,30.347
					C792.401,186.396,778.819,172.814,778.819,156.049z"/>
			</g>
		</g>
	</g>
	<g>
		
			<rect x="1652.658" y="2129.327" fill="#FFFFFF" stroke="#000000" stroke-width="6" stroke-miterlimit="10" width="79.439" height="38.247"/>
		
			<rect x="1652.604" y="2249.495" fill="#FFFFFF" stroke="#000000" stroke-width="6" stroke-miterlimit="10" width="79.439" height="38.229"/>
		
			<rect x="1658.895" y="2154.955" fill="#FFFFFF" stroke="#000000" stroke-width="6" stroke-miterlimit="10" width="65.265" height="106.947"/>
	</g>
	<g>
		
			<rect x="1471.443" y="1873.668" fill="#FFFFFF" stroke="#000000" stroke-width="6" stroke-miterlimit="10" width="20.929" height="43.484"/>
		
			<rect x="1537.19" y="1873.687" fill="#FFFFFF" stroke="#000000" stroke-width="6" stroke-miterlimit="10" width="20.946" height="43.503"/>
		
			<rect x="1485.471" y="1878.007" fill="#FFFFFF" stroke="#000000" stroke-width="6" stroke-miterlimit="10" width="58.511" height="35.724"/>
	</g>
	<g>
		
			<rect x="1471.443" y="1805.432" fill="#FFFFFF" stroke="#000000" stroke-width="6" stroke-miterlimit="10" width="20.929" height="43.486"/>
		
			<rect x="1537.19" y="1805.47" fill="#FFFFFF" stroke="#000000" stroke-width="6" stroke-miterlimit="10" width="20.946" height="43.467"/>
		
			<rect x="1485.471" y="1809.79" fill="#FFFFFF" stroke="#000000" stroke-width="6" stroke-miterlimit="10" width="58.511" height="35.704"/>
	</g>
	<g>
		
			<rect x="1471.443" y="1736.067" fill="#FFFFFF" stroke="#000000" stroke-width="6" stroke-miterlimit="10" width="20.929" height="43.468"/>
		
			<rect x="1537.19" y="1736.097" fill="#FFFFFF" stroke="#000000" stroke-width="6" stroke-miterlimit="10" width="20.946" height="43.484"/>
		
			<rect x="1485.471" y="1740.407" fill="#FFFFFF" stroke="#000000" stroke-width="6" stroke-miterlimit="10" width="58.511" height="35.723"/>
	</g>
	<g>
		
			<rect x="1471.443" y="1668.359" fill="#FFFFFF" stroke="#000000" stroke-width="6" stroke-miterlimit="10" width="20.929" height="43.486"/>
		
			<rect x="1537.19" y="1668.406" fill="#FFFFFF" stroke="#000000" stroke-width="6" stroke-miterlimit="10" width="20.946" height="43.485"/>
		
			<rect x="1485.471" y="1672.718" fill="#FFFFFF" stroke="#000000" stroke-width="6" stroke-miterlimit="10" width="58.511" height="35.704"/>
	</g>
	<g>
		
			<rect x="1471.443" y="1601.143" fill="#FFFFFF" stroke="#000000" stroke-width="6" stroke-miterlimit="10" width="20.929" height="43.467"/>
		
			<rect x="1537.19" y="1601.161" fill="#FFFFFF" stroke="#000000" stroke-width="6" stroke-miterlimit="10" width="20.946" height="43.485"/>
		
			<rect x="1485.471" y="1605.481" fill="#FFFFFF" stroke="#000000" stroke-width="6" stroke-miterlimit="10" width="58.511" height="35.723"/>
	</g>
	<g>
		
			<rect x="1619.998" y="2383.876" fill="#FFFFFF" stroke="#000000" stroke-width="6" stroke-miterlimit="10" width="43.486" height="20.918"/>
		
			<rect x="1620.054" y="2318.118" fill="#FFFFFF" stroke="#000000" stroke-width="6" stroke-miterlimit="10" width="43.467" height="20.91"/>
		
			<rect x="1624.365" y="2332.238" fill="#FFFFFF" stroke="#000000" stroke-width="6" stroke-miterlimit="10" width="35.713" height="58.529"/>
	</g>
	<g>
		
			<rect x="1551.79" y="2383.876" fill="#FFFFFF" stroke="#000000" stroke-width="6" stroke-miterlimit="10" width="43.467" height="20.918"/>
		
			<rect x="1551.809" y="2318.118" fill="#FFFFFF" stroke="#000000" stroke-width="6" stroke-miterlimit="10" width="43.486" height="20.91"/>
		
			<rect x="1556.139" y="2332.238" fill="#FFFFFF" stroke="#000000" stroke-width="6" stroke-miterlimit="10" width="35.714" height="58.529"/>
	</g>
	<g>
		
			<rect x="1482.416" y="2383.876" fill="#FFFFFF" stroke="#000000" stroke-width="6" stroke-miterlimit="10" width="43.486" height="20.918"/>
		
			<rect x="1482.454" y="2318.118" fill="#FFFFFF" stroke="#000000" stroke-width="6" stroke-miterlimit="10" width="43.485" height="20.91"/>
		
			<rect x="1486.766" y="2332.238" fill="#FFFFFF" stroke="#000000" stroke-width="6" stroke-miterlimit="10" width="35.732" height="58.529"/>
	</g>
	<g>
		
			<rect x="1414.727" y="2383.876" fill="#FFFFFF" stroke="#000000" stroke-width="6" stroke-miterlimit="10" width="43.486" height="20.918"/>
		
			<rect x="1414.746" y="2318.118" fill="#FFFFFF" stroke="#000000" stroke-width="6" stroke-miterlimit="10" width="43.485" height="20.91"/>
		
			<rect x="1419.058" y="2332.238" fill="#FFFFFF" stroke="#000000" stroke-width="6" stroke-miterlimit="10" width="35.714" height="58.529"/>
	</g>
	<g>
		
			<rect x="1347.482" y="2383.876" fill="#FFFFFF" stroke="#000000" stroke-width="6" stroke-miterlimit="10" width="43.486" height="20.918"/>
		
			<rect x="1347.519" y="2318.118" fill="#FFFFFF" stroke="#000000" stroke-width="6" stroke-miterlimit="10" width="43.467" height="20.91"/>
		
			<rect x="1351.812" y="2332.238" fill="#FFFFFF" stroke="#000000" stroke-width="6" stroke-miterlimit="10" width="35.732" height="58.529"/>
	</g>
	<g>
		
			<rect x="1280.088" y="2383.876" fill="#FFFFFF" stroke="#000000" stroke-width="6" stroke-miterlimit="10" width="43.485" height="20.918"/>
		
			<rect x="1280.125" y="2318.118" fill="#FFFFFF" stroke="#000000" stroke-width="6" stroke-miterlimit="10" width="43.486" height="20.91"/>
		
			<rect x="1284.437" y="2332.238" fill="#FFFFFF" stroke="#000000" stroke-width="6" stroke-miterlimit="10" width="35.732" height="58.529"/>
	</g>
	<g>
		
			<rect x="1211.862" y="2383.876" fill="#FFFFFF" stroke="#000000" stroke-width="6" stroke-miterlimit="10" width="43.467" height="20.918"/>
		
			<rect x="1211.88" y="2318.118" fill="#FFFFFF" stroke="#000000" stroke-width="6" stroke-miterlimit="10" width="43.486" height="20.91"/>
		
			<rect x="1216.211" y="2332.238" fill="#FFFFFF" stroke="#000000" stroke-width="6" stroke-miterlimit="10" width="35.714" height="58.529"/>
	</g>
	<g>
		
			<rect x="1142.488" y="2383.876" fill="#FFFFFF" stroke="#000000" stroke-width="6" stroke-miterlimit="10" width="43.486" height="20.918"/>
		
			<rect x="1142.525" y="2318.118" fill="#FFFFFF" stroke="#000000" stroke-width="6" stroke-miterlimit="10" width="43.467" height="20.91"/>
		
			<rect x="1146.818" y="2332.238" fill="#FFFFFF" stroke="#000000" stroke-width="6" stroke-miterlimit="10" width="35.732" height="58.529"/>
	</g>
	<g>
		
			<rect x="1143.303" y="2039.865" fill="#FFFFFF" stroke="#000000" stroke-width="6" stroke-miterlimit="10" width="49.333" height="81.172"/>
		
			<rect x="1144.006" y="2052.865" fill="#FFFFFF" stroke="#000000" stroke-width="6" stroke-miterlimit="10" width="48.056" height="53.441"/>
	</g>
	<g>
		
			<rect x="1209.585" y="2039.865" fill="#FFFFFF" stroke="#000000" stroke-width="6" stroke-miterlimit="10" width="49.352" height="81.172"/>
		
			<rect x="1210.271" y="2052.865" fill="#FFFFFF" stroke="#000000" stroke-width="6" stroke-miterlimit="10" width="48.057" height="53.441"/>
	</g>
	<g>
		<g>
			<g>
				
					<rect x="1513.744" y="2060.008" fill="#FFFFFF" stroke="#000000" stroke-width="6" stroke-miterlimit="10" width="36.158" height="112.961"/>
				
					<rect x="1509.97" y="2164.957" fill="#FFFFFF" stroke="#000000" stroke-width="6" stroke-miterlimit="10" width="51.184" height="10.556"/>
				
					<rect x="1509.97" y="2054.717" fill="#FFFFFF" stroke="#000000" stroke-width="6" stroke-miterlimit="10" width="51.184" height="10.556"/>
				<polygon fill="#FFFFFF" stroke="#000000" stroke-width="6" stroke-miterlimit="10" points="1561.153,2143.177 1509.97,2143.195 
					1509.97,2153.762 1561.153,2153.743 				"/>
				
					<rect x="1509.97" y="2121.72" fill="#FFFFFF" stroke="#000000" stroke-width="6" stroke-miterlimit="10" width="51.184" height="10.567"/>
				
					<rect x="1509.97" y="2098.629" fill="#FFFFFF" stroke="#000000" stroke-width="6" stroke-miterlimit="10" width="51.184" height="10.563"/>
				<polygon fill="#FFFFFF" stroke="#000000" stroke-width="6" stroke-miterlimit="10" points="1561.153,2076.386 1509.97,2076.386 
					1509.97,2086.969 1561.153,2086.95 				"/>
			</g>
		</g>
		<g>
			<g>
				
					<rect x="1289.433" y="2059.832" fill="#FFFFFF" stroke="#000000" stroke-width="6" stroke-miterlimit="10" width="36.158" height="109.908"/>
				
					<rect x="1278.2" y="2054.559" fill="#FFFFFF" stroke="#000000" stroke-width="6" stroke-miterlimit="10" width="51.165" height="10.566"/>
				
					<rect x="1278.2" y="2164.799" fill="#FFFFFF" stroke="#000000" stroke-width="6" stroke-miterlimit="10" width="51.165" height="10.566"/>
				
					<rect x="1278.2" y="2076.31" fill="#FFFFFF" stroke="#000000" stroke-width="6" stroke-miterlimit="10" width="51.165" height="10.566"/>
				
					<rect x="1278.2" y="2097.785" fill="#FFFFFF" stroke="#000000" stroke-width="6" stroke-miterlimit="10" width="51.165" height="10.566"/>
				
					<rect x="1278.2" y="2120.879" fill="#FFFFFF" stroke="#000000" stroke-width="6" stroke-miterlimit="10" width="51.165" height="10.566"/>
				<polygon fill="#FFFFFF" stroke="#000000" stroke-width="6" stroke-miterlimit="10" points="1278.2,2153.688 1329.365,2153.67 
					1329.365,2143.121 1278.2,2143.121 				"/>
			</g>
		</g>
		<g>
			<g>
				
					<rect x="1362.692" y="1983.095" fill="#FFFFFF" stroke="#000000" stroke-width="6" stroke-miterlimit="10" width="112.988" height="36.165"/>
				
					<rect x="1467.65" y="1971.844" fill="#FFFFFF" stroke="#000000" stroke-width="6" stroke-miterlimit="10" width="10.547" height="51.193"/>
				<polygon fill="#FFFFFF" stroke="#000000" stroke-width="6" stroke-miterlimit="10" points="1357.4,1971.844 1357.418,2023.037 
					1367.984,2023.037 1367.966,1971.844 				"/>
				<polygon fill="#FFFFFF" stroke="#000000" stroke-width="6" stroke-miterlimit="10" points="1445.889,1971.844 
					1445.889,2023.037 1456.455,2023.037 1456.437,1971.844 				"/>
				
					<rect x="1424.405" y="1971.844" fill="#FFFFFF" stroke="#000000" stroke-width="6" stroke-miterlimit="10" width="10.565" height="51.193"/>
				<polygon fill="#FFFFFF" stroke="#000000" stroke-width="6" stroke-miterlimit="10" points="1401.312,1971.844 
					1401.312,2023.037 1411.896,2023.037 1411.877,1971.844 				"/>
				<polygon fill="#FFFFFF" stroke="#000000" stroke-width="6" stroke-miterlimit="10" points="1379.087,1971.844 
					1379.087,2023.037 1389.653,2023.037 1389.635,1971.844 				"/>
			</g>
		</g>
		<g>
			<g>
				
					<rect x="1362.692" y="2218.592" fill="#FFFFFF" stroke="#000000" stroke-width="6" stroke-miterlimit="10" width="109.917" height="36.168"/>
				<polygon fill="#FFFFFF" stroke="#000000" stroke-width="6" stroke-miterlimit="10" points="1367.984,2266.01 1367.966,2214.817 
					1357.4,2214.817 1357.418,2266.01 				"/>
				<polygon fill="#FFFFFF" stroke="#000000" stroke-width="6" stroke-miterlimit="10" points="1478.197,2266.01 1478.197,2214.817 
					1467.65,2214.817 1467.668,2266.01 				"/>
				
					<rect x="1379.18" y="2214.817" fill="#FFFFFF" stroke="#000000" stroke-width="6" stroke-miterlimit="10" width="10.566" height="51.192"/>
				<polygon fill="#FFFFFF" stroke="#000000" stroke-width="6" stroke-miterlimit="10" points="1411.211,2266.01 1411.211,2214.817 
					1400.627,2214.817 1400.645,2266.01 				"/>
				<polygon fill="#FFFFFF" stroke="#000000" stroke-width="6" stroke-miterlimit="10" points="1434.286,2266.01 1434.286,2214.817 
					1423.721,2214.817 1423.738,2266.01 				"/>
				
					<rect x="1445.963" y="2214.817" fill="#FFFFFF" stroke="#000000" stroke-width="6" stroke-miterlimit="10" width="10.566" height="51.192"/>
			</g>
		</g>
		
			<rect x="1312.138" y="2010.194" fill="#FFFFFF" stroke="#000000" stroke-width="6" stroke-miterlimit="10" width="216.115" height="213.163"/>
		
			<rect x="1317.43" y="2015.911" fill="#FFFFFF" stroke="#000000" stroke-width="6" stroke-miterlimit="10" width="205.512" height="202.328"/>
		
			<rect x="1319.613" y="2017.993" fill="#FFFFFF" stroke="#000000" stroke-width="6" stroke-miterlimit="10" width="200.757" height="198.146"/>
		
			<rect x="1323.611" y="2023.037" fill="#FFFFFF" stroke="#000000" stroke-width="6" stroke-miterlimit="10" width="191.115" height="188.439"/>
	</g>
	
		<rect x="1840.979" y="2240.383" fill="#FFFFFF" stroke="#000000" stroke-width="6" stroke-miterlimit="10" width="43.469" height="20.917"/>
	
		<rect x="1840.942" y="2306.148" fill="#FFFFFF" stroke="#000000" stroke-width="6" stroke-miterlimit="10" width="43.486" height="20.917"/>
	
		<rect x="1844.385" y="2254.397" fill="#FFFFFF" stroke="#000000" stroke-width="6" stroke-miterlimit="10" width="35.713" height="58.54"/>
	<g>
		
			<rect x="1776.064" y="2240.383" fill="#FFFFFF" stroke="#000000" stroke-width="6" stroke-miterlimit="10" width="43.469" height="20.917"/>
		
			<rect x="1776.028" y="2306.148" fill="#FFFFFF" stroke="#000000" stroke-width="6" stroke-miterlimit="10" width="43.486" height="20.917"/>
		
			<rect x="1779.471" y="2254.397" fill="#FFFFFF" stroke="#000000" stroke-width="6" stroke-miterlimit="10" width="35.731" height="58.54"/>
	</g>
	<g>
		
			<rect x="1840.979" y="2122.479" fill="#FFFFFF" stroke="#000000" stroke-width="6" stroke-miterlimit="10" width="43.469" height="20.921"/>
		
			<rect x="1840.942" y="2188.245" fill="#FFFFFF" stroke="#000000" stroke-width="6" stroke-miterlimit="10" width="43.486" height="20.91"/>
		
			<rect x="1844.385" y="2136.487" fill="#FFFFFF" stroke="#000000" stroke-width="6" stroke-miterlimit="10" width="35.713" height="58.548"/>
	</g>
	
		<rect x="1776.064" y="2122.479" fill="#FFFFFF" stroke="#000000" stroke-width="6" stroke-miterlimit="10" width="43.469" height="20.921"/>
	
		<rect x="1776.028" y="2188.245" fill="#FFFFFF" stroke="#000000" stroke-width="6" stroke-miterlimit="10" width="43.486" height="20.91"/>
	
		<rect x="1779.471" y="2136.487" fill="#FFFFFF" stroke="#000000" stroke-width="6" stroke-miterlimit="10" width="35.731" height="58.548"/>
	<g>
		
			<rect x="1212.51" y="2162.522" fill="#FFFFFF" stroke="#000000" stroke-width="6" stroke-miterlimit="10" width="43.485" height="20.91"/>
		
			<rect x="1212.491" y="2228.28" fill="#FFFFFF" stroke="#000000" stroke-width="6" stroke-miterlimit="10" width="43.486" height="20.918"/>
		
			<rect x="1215.933" y="2176.533" fill="#FFFFFF" stroke="#000000" stroke-width="6" stroke-miterlimit="10" width="35.714" height="58.537"/>
	</g>
	<g>
		
			<rect x="1147.614" y="2162.522" fill="#FFFFFF" stroke="#000000" stroke-width="6" stroke-miterlimit="10" width="43.467" height="20.91"/>
		
			<rect x="1147.577" y="2228.28" fill="#FFFFFF" stroke="#000000" stroke-width="6" stroke-miterlimit="10" width="43.486" height="20.918"/>
		
			<rect x="1151.019" y="2176.533" fill="#FFFFFF" stroke="#000000" stroke-width="6" stroke-miterlimit="10" width="35.732" height="58.537"/>
	</g>
	<g>
		
			<rect x="1655.101" y="1883.18" fill="#FFFFFF" stroke="#000000" stroke-width="6" stroke-miterlimit="10" width="43.485" height="20.938"/>
		
			<rect x="1655.064" y="1948.944" fill="#FFFFFF" stroke="#000000" stroke-width="6" stroke-miterlimit="10" width="43.485" height="20.939"/>
		
			<rect x="1658.525" y="1897.215" fill="#FFFFFF" stroke="#000000" stroke-width="6" stroke-miterlimit="10" width="35.714" height="58.521"/>
	</g>
	<g>
		
			<rect x="1655.101" y="1766.092" fill="#FFFFFF" stroke="#000000" stroke-width="6" stroke-miterlimit="10" width="43.485" height="20.938"/>
		
			<rect x="1655.064" y="1831.856" fill="#FFFFFF" stroke="#000000" stroke-width="6" stroke-miterlimit="10" width="43.485" height="20.938"/>
		
			<rect x="1658.525" y="1780.1" fill="#FFFFFF" stroke="#000000" stroke-width="6" stroke-miterlimit="10" width="35.714" height="58.549"/>
	</g>
	<g>
		
			<rect x="973.005" y="1873.918" fill="#FFFFFF" stroke="#000000" stroke-width="6" stroke-miterlimit="10" width="133.77" height="75.555"/>
		
			<rect x="973.005" y="1755.766" fill="#FFFFFF" stroke="#000000" stroke-width="6" stroke-miterlimit="10" width="133.77" height="75.545"/>
		
			<rect x="1276.146" y="1690.565" fill="#FFFFFF" stroke="#000000" stroke-width="6" stroke-miterlimit="10" width="133.788" height="201.22"/>
		
			<rect x="973.005" y="1630.62" fill="#FFFFFF" stroke="#000000" stroke-width="6" stroke-miterlimit="10" width="133.77" height="75.544"/>
		<g>
			
				<rect x="1099.502" y="1621.997" fill="#FFFFFF" stroke="#000000" stroke-width="6" stroke-miterlimit="10" width="204.272" height="341.196"/>
			
				<rect x="1118.358" y="1640.77" fill="#FFFFFF" stroke="#000000" stroke-width="6" stroke-miterlimit="10" width="169.927" height="307.147"/>
		</g>
	</g>
	<g>
		
			<rect x="971.581" y="2237.291" fill="#FFFFFF" stroke="#000000" stroke-width="6" stroke-miterlimit="10" width="43.485" height="20.92"/>
		
			<rect x="971.617" y="2171.525" fill="#FFFFFF" stroke="#000000" stroke-width="6" stroke-miterlimit="10" width="43.486" height="20.938"/>
		
			<rect x="975.929" y="2185.653" fill="#FFFFFF" stroke="#000000" stroke-width="6" stroke-miterlimit="10" width="35.714" height="58.548"/>
	</g>
	<g>
		
			<rect x="971.581" y="2066.91" fill="#FFFFFF" stroke="#000000" stroke-width="6" stroke-miterlimit="10" width="43.485" height="20.92"/>
		
			<rect x="971.617" y="2001.145" fill="#FFFFFF" stroke="#000000" stroke-width="6" stroke-miterlimit="10" width="43.486" height="20.92"/>
		
			<rect x="975.929" y="2015.272" fill="#FFFFFF" stroke="#000000" stroke-width="6" stroke-miterlimit="10" width="35.714" height="58.551"/>
	</g>
	<g>
		
			<rect x="1044.229" y="2007.845" fill="#FFFFFF" stroke="#000000" stroke-width="6" stroke-miterlimit="10" width="74.13" height="250.478"/>
		
			<rect x="1053.259" y="2060.98" fill="#FFFFFF" stroke="#000000" stroke-width="6" stroke-miterlimit="10" width="55.384" height="150.08"/>
	</g>
	
		<rect x="1722.809" y="2356.192" fill="#FFFFFF" stroke="#000000" stroke-width="6" stroke-miterlimit="10" width="151.108" height="296.396"/>
	
		<rect x="1716.074" y="2422.087" fill="#FFFFFF" stroke="#000000" stroke-width="6" stroke-miterlimit="10" width="164.023" height="166.199"/>
	
		<rect x="1722.809" y="2400.297" fill="#FFFFFF" stroke="#000000" stroke-width="6" stroke-miterlimit="10" width="25.018" height="210.545"/>
	
		<rect x="1848.898" y="2400.297" fill="#FFFFFF" stroke="#000000" stroke-width="6" stroke-miterlimit="10" width="25.019" height="210.545"/>
	<path fill="#FFFFFF" stroke="#000000" stroke-width="6" stroke-miterlimit="10" d="M1798.66,2446.9
		c32.178,0,58.288,26.111,58.288,58.29c0,32.199-26.11,58.309-58.288,58.309c-32.198,0-58.309-26.109-58.309-58.309
		C1740.352,2473.012,1766.462,2446.9,1798.66,2446.9z"/>
	
		<rect x="965.363" y="2356.192" fill="#FFFFFF" stroke="#000000" stroke-width="6" stroke-miterlimit="10" width="151.108" height="296.396"/>
	
		<rect x="958.646" y="2422.087" fill="#FFFFFF" stroke="#000000" stroke-width="6" stroke-miterlimit="10" width="165.042" height="166.199"/>
	
		<rect x="965.363" y="2400.297" fill="#FFFFFF" stroke="#000000" stroke-width="6" stroke-miterlimit="10" width="25.037" height="210.545"/>
	
		<rect x="1091.453" y="2400.297" fill="#FFFFFF" stroke="#000000" stroke-width="6" stroke-miterlimit="10" width="25.018" height="210.545"/>
	<path fill="#FFFFFF" stroke="#000000" stroke-width="6" stroke-miterlimit="10" d="M1041.213,2446.9
		c32.18,0,58.289,26.111,58.289,58.29c0,32.199-26.109,58.309-58.289,58.309c-32.198,0-58.308-26.109-58.308-58.309
		C982.905,2473.012,1009.015,2446.9,1041.213,2446.9z"/>
	<g>
		<path d="M1169.356,2542.645v18.226h-29.589v-22.547l4.793,4.321v12.979h7.235v-15.312l4.867,4.377v10.935h7.883v-17.301
			L1169.356,2542.645z"/>
		<path d="M1169.356,2517.523l-21.169,13.563h21.169v4.978h-27.923l-2.054-4.726l21.15-13.694h-19.097l-2.184-4.986h30.106V2517.523
			z"/>
	</g>
	<g>
		<path d="M1687.336,2538.396l4.183,4.053v19.746h-29.589v-19.746l4.182-4.053h7.993l2.185,2.555l2.313-2.628L1687.336,2538.396z
			 M1666.74,2543.635v13.314h7.235v-13.314H1666.74z M1678.842,2543.635v13.314h7.884v-13.314H1678.842z"/>
		<path d="M1691.519,2514.102v15.432l-4.108,4.237h-21.373l-4.107-4.237v-15.432l4.107-4.237h21.373L1691.519,2514.102z
			 M1666.74,2515.09v13.426h19.985v-13.426H1666.74z"/>
		<path d="M1691.519,2485.438v15.413l-4.108,4.256h-21.373l-4.107-4.256v-15.413l4.107-4.237h21.373L1691.519,2485.438z
			 M1666.74,2486.436v13.427h19.985v-13.427H1666.74z"/>
		<path d="M1666.74,2458.197v6.385h24.778v5.236h-24.778v10.622l-4.811-4.608v-22.261L1666.74,2458.197z"/>
	</g>
	<g>
		<g>
			<path d="M915.844,2631.541h-12.546v13.174h12.546v5.247h-29.607v-19.606l3.867-4.071h8.013l2.553,2.823l2.757-2.823h12.417
				V2631.541z M891.067,2631.541v13.174h7.346v-13.174H891.067z"/>
			<path d="M915.844,2603.053h-10.677v13.054h10.677v5.32h-25.536l-4.071-4.44v-14.729l4.071-4.432h25.536V2603.053z
				 M891.067,2603.053v13.054h9.308v-13.054H891.067z"/>
			<path d="M915.844,2560.019v11.753l-2.424,2.544l2.424,2.57v11.944l-4.182,3.99H887.94l-2.184-5.191h25.296v-10.688h-22.872
				v-5.226h22.872v-10.688h-25.296l2.184-5.236h23.852L915.844,2560.019z"/>
		</g>
		<g>
			<path d="M915.844,2488.205h-22.742v6.845l-6.865-6.727v-5.394h29.607V2488.205z"/>
			<path d="M915.844,2460.965h-22.742v6.866l-6.865-6.745v-5.377h29.607V2460.965z"/>
		</g>
		<g>
			<path d="M915.844,2352.26h-22.742v6.866l-6.865-6.727v-5.375h29.607V2352.26z"/>
			<path d="M915.844,2335.022h-29.663v-22.243h29.663V2335.022z M890.734,2318.037v11.676h20.558v-11.676H890.734z"/>
		</g>
		<g>
			<path d="M915.844,2218.397l-4.552-3.052v-14.555h-6.735v16.986h-18.375v-22.24h29.663V2218.397z M890.734,2200.791v11.676h9.271
				v-11.676H890.734z"/>
		</g>
		<g>
			<path d="M915.844,2082.98h-22.742v6.866l-6.865-6.727v-5.375h29.607V2082.98z"/>
			<path d="M915.844,2065.764h-9.067v-5.33h4.515v-11.676h-8.049v7.938h-4.571v-7.938h-7.938v11.676h3.812v5.33h-8.309
				l-0.056-22.242h12.398l2.369,2.497l2.368-2.497h12.527V2065.764z"/>
		</g>
		<g>
			<path d="M891.067,1948.324v13.934h19.91v-12.998h-7.55v10.252l-4.811-4.627v-10.863l12.99,0.055l4.237,4.193v14.719l-4.182,4.517
				h-21.225l-4.126-4.747l-0.074-19.356L891.067,1948.324z"/>
			<path d="M915.844,1920.79l-21.168,13.545h21.168v4.997H887.94l-2.072-4.747l21.168-13.677H887.94l-2.184-4.976h30.088V1920.79z"
				/>
			<path d="M915.844,1891.487v19.188h-29.607l0.074-19.188l4.053-4.486h21.373L915.844,1891.487z M891.067,1892.247v13.175h19.985
				v-13.175H891.067z"/>
		</g>
		<g>
			<path d="M915.844,1811.113h-22.742v6.875l-6.865-6.754v-5.367h29.607V1811.113z"/>
			<path d="M915.844,1774.133v19.744h-8.808l-10.362-17.007h-5.939v11.695h4.441v5.312h-8.938l-0.056-22.233h12.436l10.492,16.922
				h2.184v-17.552L915.844,1774.133z"/>
		</g>
		<g>
			<path d="M915.844,1671.183h-22.742v6.873l-6.865-6.754v-5.375h29.607V1671.183z"/>
			<path d="M909.868,1631.277v2.996h5.977v5.312h-5.977v16.173h-4.645l-18.986-15.979v-5.506h19.06v-5.116L909.868,1631.277z
				 M891.807,1639.585l13.49,11.307v-11.307H891.807z"/>
		</g>
		<g>
			<path d="M915.844,1523.257v19.744h-8.808l-10.362-17.005h-5.939v11.694h4.441v5.311h-8.938l-0.056-22.233h12.436l10.492,16.923
				h2.184v-17.543L915.844,1523.257z"/>
			<path d="M915.844,1504.835v5.246l-25.11-11.048v17.664l-4.553-3.055v-19.92h4.386L915.844,1504.835z"/>
		</g>
	</g>
	<g>
		<g>
			<path d="M1929.376,2606.226v14.184h6.883v-16.923h18.228v22.214h-29.662v-22.548L1929.376,2606.226z M1940.811,2608.715v11.694
				h9.123v-11.694H1940.811z"/>
		</g>
		<g>
			<path d="M1954.486,2473.28v5.254l-25.11-11.056v17.672l-4.552-3.055v-19.929h4.384L1954.486,2473.28z"/>
		</g>
		<g>
			<path d="M1954.486,2348.291h-11.899l-3.071-3.193l-2.924,3.193h-11.768v-22.242h11.768l2.999,3.136l2.996-3.136h11.899V2348.291z
				 M1929.376,2331.303v11.676h7.938v-11.676H1929.376z M1941.865,2331.303v11.676h8.068v-11.676H1941.865z"/>
		</g>
		<g>
			<path d="M1954.486,2219.84h-22.724v6.866l-6.865-6.734v-5.386h29.589V2219.84z"/>
			<path d="M1929.376,2183.128v14.165h6.883v-16.931h18.228v22.243h-8.624v-5.313h4.071v-11.676h-9.123v16.988h-15.986v-22.559
				L1929.376,2183.128z"/>
		</g>
		<g>
			<path d="M1954.486,2059.287v19.725h-8.789l-10.382-16.985h-5.939v11.676h4.44v5.31h-8.919l-0.073-22.242h12.416l10.51,16.933
				h2.184v-17.551L1954.486,2059.287z"/>
		</g>
		<g>
			<path d="M1954.486,1937.794h-29.662v-22.231h29.662V1937.794z M1929.376,1920.809v11.676h20.558v-11.676H1929.376z"/>
		</g>
		<g>
			<path d="M1948.491,1784.457v2.998h5.995v5.311h-5.995v16.174h-4.608l-18.985-15.979v-5.506h19.041v-5.116L1948.491,1784.457z
				 M1930.43,1792.766l13.509,11.307v-11.307H1930.43z"/>
		</g>
		<g>
			<path d="M1954.486,1678.028h-22.724v6.875l-6.865-6.735v-5.385h29.589V1678.028z"/>
			<path d="M1929.376,1641.315v14.165h6.883v-16.903h18.228v22.215h-29.662v-22.529L1929.376,1641.315z M1940.811,1643.814v11.666
				h9.123v-11.666H1940.811z"/>
		</g>
		<g>
			<path d="M1954.486,1534.655h-22.724v6.875l-6.865-6.755v-5.376h29.589V1534.655z"/>
			<path d="M1954.486,1506.481v5.256l-25.11-11.048v17.664l-4.552-3.055v-19.919h4.384L1954.486,1506.481z"/>
		</g>
	</g>
</g>
</svg>
